o Default
v 0.125 0 0.375
v -1.625 0 -3.552713678800501e-15
v 0.125 -0.75 -3.552713678800501e-15
v -1.625 -0.75 -3.552713678800501e-15
v 0.125 0.75 -3.552713678800501e-15
v -1.625 0.75 -3.552713678800501e-15
v 1.875 0 -3.552713678800501e-15
v 1.875 0.75 -3.552713678800501e-15
v 1.875 -0.75 -3.552713678800501e-15
v 0.125 0 -0.38749998807907104
v 1.875 -0.625 -3.552713678800501e-15
v 2.75 0.625 -3.552713678800501e-15
v 1.875 0.625 -3.552713678800501e-15
v 2.75 -0.625 -3.552713678800501e-15
v 1.125 0.625 -3.552713678800501e-15
v -0.375 1.875 -3.552713678800501e-15
v 1.125 1.875 -3.552713678800501e-15
v -0.375 0.625 -3.552713678800501e-15
v 2 0.375 -3.552713678800501e-15
v 1.375 0.875 -3.552713678800501e-15
v 2 0.875 -3.552713678800501e-15
v 1.375 0.375 -3.552713678800501e-15
v 2.375 -1 -3.552713678800501e-15
v 1.125 -0.375 -3.552713678800501e-15
v 2.375 -0.375 -3.552713678800501e-15
v 1.125 -1 -3.552713678800501e-15
v 0.75 -1.125 -3.552713678800501e-15
v 0.75 -0.75 -3.552713678800501e-15
v 0.125 -1.125 -3.552713678800501e-15
v 0.375 -0.533470869064331 -0.54152911901474
v -0.375 -0.09152913093566895 -0.2334708571434021
v 0.375 -0.09152913093566895 -0.7334708571434021
v -0.375 -0.533470869064331 -0.0040291547775268555
v 0.375 -0.533470869064331 0.5352791547775269
v -0.375 -0.09152913093566895 0.22722089290618896
v 0.375 -0.09152913093566895 0.7272205948829651
vt 0.46875 0.75
vt 0.03125 0.75
vt 0.46875 0.5625
vt 0.03125 0.75
vt 0.03125 0.5625
vt 0.46875 0.5625
vt 0.03125 0.75
vt 0.46875 0.9375
vt 0.03125 0.9375
vt 0.03125 0.75
vt 0.46875 0.75
vt 0.46875 0.9375
vt 0.46875 0.75
vt 0.90625 0.75
vt 0.46875 0.9375
vt 0.90625 0.75
vt 0.90625 0.9375
vt 0.46875 0.9375
vt 0.46875 0.5625
vt 0.90625 0.75
vt 0.46875 0.75
vt 0.46875 0.5625
vt 0.90625 0.5625
vt 0.90625 0.75
vt 0.46875 0.75
vt 0.90625 0.75
vt 0.46875 0.5625
vt 0.46875 0.5625
vt 0.03125 0.75
vt 0.46875 0.75
vt 0.46875 0.9375
vt 0.46875 0.75
vt 0.03125 0.75
vt 0.46875 0.9375
vt 0.90625 0.75
vt 0.46875 0.75
vt 0.03125 0.5
vt 0.25 0.1875
vt 0.03125 0.1875
vt 0.03125 0.5
vt 0.25 0.5
vt 0.25 0.1875
vt 0.6875 0.1875
vt 0.3125 0.5
vt 0.6875 0.5
vt 0.6875 0.1875
vt 0.3125 0.1875
vt 0.3125 0.5
vt 0.96875 0.375
vt 0.8125 0.5
vt 0.96875 0.5
vt 0.96875 0.375
vt 0.8125 0.375
vt 0.8125 0.5
vt 0.34375 0
vt 0.03125 0.15625
vt 0.34375 0.15625
vt 0.34375 0
vt 0.03125 0
vt 0.03125 0.15625
vt 0.5625 0
vt 0.40625 0.09375
vt 0.5625 0.09375
vt 0.5625 0
vt 0.40625 0
vt 0.40625 0.09375
vt 0.8125 0.15625
vt 0.96875 0.375
vt 0.96875 0.15625
vt 0.8125 0.15625
vt 0.8125 0.375
vt 0.96875 0.375
vt 0.8125 0.15625
vt 0.96875 0.375
vt 0.96875 0.15625
vt 0.8125 0.15625
vt 0.8125 0.375
vt 0.96875 0.375
vn -0.18823674154144893 -0.43921906359671414 0.87843812719342
vn -0.18823674154144893 -0.43921906359671414 0.87843812719342
vn -0.18823674154144893 -0.43921906359671414 0.87843812719342
vn 0 0 1
vn 0 0 1
vn 0 0 1
vn 0 0 1
vn 0 0 1
vn 0 0 1
vn -0.18823674154144893 0.43921906359671414 0.87843812719342
vn -0.18823674154144893 0.43921906359671414 0.87843812719342
vn -0.18823674154144893 0.43921906359671414 0.87843812719342
vn 0.18823674154144893 0.43921906359671414 0.87843812719342
vn 0.18823674154144893 0.43921906359671414 0.87843812719342
vn 0.18823674154144893 0.43921906359671414 0.87843812719342
vn 0 0 1
vn 0 0 1
vn 0 0 1
vn 0.18823674154144893 -0.43921906359671414 0.87843812719342
vn 0.18823674154144893 -0.43921906359671414 0.87843812719342
vn 0.18823674154144893 -0.43921906359671414 0.87843812719342
vn 0 0 1
vn 0 0 1
vn 0 0 1
vn 0.193023336877895 -0.45038778604842167 -0.8717183223948685
vn 0.193023336877895 -0.45038778604842167 -0.8717183223948685
vn 0.193023336877895 -0.45038778604842167 -0.8717183223948685
vn -0.193023336877895 -0.45038778604842167 -0.8717183223948685
vn -0.193023336877895 -0.45038778604842167 -0.8717183223948685
vn -0.193023336877895 -0.45038778604842167 -0.8717183223948685
vn -0.193023336877895 0.45038778604842167 -0.8717183223948685
vn -0.193023336877895 0.45038778604842167 -0.8717183223948685
vn -0.193023336877895 0.45038778604842167 -0.8717183223948685
vn 0.193023336877895 0.45038778604842167 -0.8717183223948685
vn 0.193023336877895 0.45038778604842167 -0.8717183223948685
vn 0.193023336877895 0.45038778604842167 -0.8717183223948685
vn 0 0 1
vn 0 0 1
vn 0 0 1
vn 0 0 1
vn 0 0 1
vn 0 0 1
vn 0 0 -1
vn 0 0 -1
vn 0 0 -1
vn 0 0 -1
vn 0 0 -1
vn 0 0 -1
vn 0 0 -1
vn 0 0 -1
vn 0 0 -1
vn 0 0 -1
vn 0 0 -1
vn 0 0 -1
vn 0 0 -1
vn 0 0 -1
vn 0 0 -1
vn 0 0 -1
vn 0 0 -1
vn 0 0 -1
vn 0 0 -1
vn 0 0 -1
vn 0 0 -1
vn 0 0 -1
vn 0 0 -1
vn 0 0 -1
vn -0.5216820125408425 -0.3398611522693393 -0.7825230188112636
vn -0.5216820125408425 -0.3398611522693393 -0.7825230188112636
vn -0.5216820125408425 -0.3398611522693393 -0.7825230188112636
vn -0.5366903130332211 -0.38878895365251376 -0.7488702540587966
vn -0.5366903130332211 -0.38878895365251376 -0.7488702540587966
vn -0.5366903130332211 -0.38878895365251376 -0.7488702540587966
vn 0.5216818797786941 0.33986074065739047 -0.782523286088266
vn 0.5216818797786941 0.33986074065739047 -0.782523286088266
vn 0.5216818797786941 0.33986074065739047 -0.782523286088266
vn 0.5366902917354083 0.3887888803376184 -0.7488703073849192
vn 0.5366902917354083 0.3887888803376184 -0.7488703073849192
vn 0.5366902917354083 0.3887888803376184 -0.7488703073849192
g Scene
usemtl 0
f 1/1/1 2/2/2 3/3/3
f 2/4/4 4/5/5 3/6/6
f 2/7/7 5/8/8 6/9/9
f 2/10/10 1/11/11 5/12/12
f 1/13/13 7/14/14 5/15/15
f 7/16/16 8/17/17 5/18/18
f 3/19/19 7/20/20 1/21/21
f 3/22/22 9/23/23 7/24/24
f 10/25/25 7/26/26 3/27/27
f 3/28/28 2/29/29 10/30/30
f 5/31/31 10/32/32 2/33/33
f 5/34/34 7/35/35 10/36/36
f 11/37/37 12/38/38 13/39/39
f 11/40/40 14/41/41 12/42/42
f 15/43/43 16/44/44 17/45/45
f 15/46/46 18/47/47 16/48/48
f 19/49/49 20/50/50 21/51/51
f 19/52/52 22/53/53 20/54/54
f 23/55/55 24/56/56 25/57/57
f 23/58/58 26/59/59 24/60/60
f 27/61/61 3/62/62 28/63/63
f 27/64/64 29/65/65 3/66/66
f 30/67/67 31/68/68 32/69/69
f 30/70/70 33/71/71 31/72/72
f 34/73/73 35/74/74 36/75/75
f 34/76/76 33/77/77 35/78/78
