o Default
v -0.5397727489471436 0.9685267210006714 -0.36791735887527466
v 0.46022725105285645 0.9685267210006714 -0.36791735887527466
v 0.46022725105285645 0.9685267210006714 -0.8679173588752747
v -0.3798396587371826 0.12994277477264404 0.003907918930053711
v 0.12328553944826126 -0.37005728483200073 0.2539076805114746
v 0.24516035616397858 0.12994277477264404 0.3820326328277588
v -0.2548396587371826 -0.37005728483200073 0.003907680511474609
v 0.24516035616397858 0.12994277477264404 -0.37421703338623047
v 0.12016034871339798 -0.37005728483200073 -0.24921727180480957
v -0.2548398971557617 -1.120057225227356 0.0007827280787751079
v 0.12016034871339798 -1.120057225227356 -0.24921727180480957
v 0.12328530102968216 -1.1200571060180664 0.2539076805114746
v 0.46022725105285645 -0.4064732789993286 0.8820826411247253
v 0.08522725850343704 -0.4064732789993286 -0.6804173588752747
v 0.46022725105285645 -0.4064732789993286 -0.8679173588752747
v 0.08522725850343704 -0.4064732789993286 0.6945826411247253
v 0.46022725105285645 -0.9064732789993286 1.3820825815200806
v 0.46022725105285645 1.7185267210006714 -1.6179174184799194
v 0.46022725105285645 1.7185267210006714 1.3820825815200806
v 0.46022725105285645 -0.9064732789993286 -1.6179174184799194
v 0.08522725850343704 -0.4064732789993286 0.38208264112472534
v -0.5397727489471436 0.2185267210006714 0.38208264112472534
v 0.08522725850343704 -0.4064732789993286 -0.36791735887527466
v -0.5397727489471436 0.2185267210006714 -0.36791735887527466
v -0.5397727489471436 0.9685267210006714 0.38208264112472534
v 0.08522725850343704 0.2185267210006714 0.6945826411247253
v 0.46022725105285645 0.9685267210006714 0.8820826411247253
v 0.46022725105285645 0.2185267210006714 0.8820826411247253
v 0.08522725850343704 0.2185267210006714 -0.6804173588752747
v 0.46022725105285645 0.2185267210006714 -0.8679173588752747
v 0.46022725105285645 0.9685267210006714 0.38208264112472534
vt 0.328125 0.953125
vt 0.390625 0.953125
vt 0.390625 0.984375
vt 0.015625 0.09375
vt 0.046875 0.0625
vt 0.015625 0.0625
vt 0.015625 0.09375
vt 0.046875 0.09375
vt 0.046875 0.0625
vt 0.015625 0.09375
vt 0.046875 0.0625
vt 0.015625 0.0625
vt 0.015625 0.09375
vt 0.046875 0.09375
vt 0.046875 0.0625
vt 0.015625 0.09375
vt 0.046875 0.0625
vt 0.015625 0.0625
vt 0.015625 0.09375
vt 0.046875 0.09375
vt 0.046875 0.0625
vt 0.046875 0.09375
vt 0.09375 0.0625
vt 0.046875 0.0625
vt 0.046875 0.09375
vt 0.09375 0.09375
vt 0.09375 0.0625
vt 0.109375 0.09375
vt 0.125 0.0625
vt 0.09375 0.0625
vt 0.046875 0.09375
vt 0.09375 0.0625
vt 0.046875 0.0625
vt 0.046875 0.09375
vt 0.09375 0.09375
vt 0.09375 0.0625
vt 0.046875 0.09375
vt 0.09375 0.0625
vt 0.046875 0.0625
vt 0.046875 0.09375
vt 0.09375 0.09375
vt 0.09375 0.0625
vt 0.234375 0.875
vt 0.34375 0.8515625
vt 0.34375 0.875
vt 0.234375 0.875
vt 0.234375 0.8515625
vt 0.34375 0.8515625
vt 0.28125 0.671875
vt 0.46875 0.8359375
vt 0.28125 0.8359375
vt 0.28125 0.671875
vt 0.46875 0.671875
vt 0.46875 0.8359375
vt 0.4453125 0.8984375
vt 0.40625 0.8984375
vt 0.4453125 0.9375
vt 0.4921875 0.8984375
vt 0.4453125 0.9375
vt 0.4921875 0.9375
vt 0.4921875 0.8984375
vt 0.4453125 0.8984375
vt 0.4453125 0.9375
vt 0.53125 0.8984375
vt 0.4921875 0.8984375
vt 0.4921875 0.9375
vt 0.4921875 0.9375
vt 0.4453125 0.984375
vt 0.4921875 0.984375
vt 0.4921875 0.9375
vt 0.4453125 0.9375
vt 0.4453125 0.984375
vt 0.2890625 0.8984375
vt 0.2890625 0.9375
vt 0.25 0.9375
vt 0.25 0.9375
vt 0.3125 0.984375
vt 0.25 0.984375
vt 0.25 0.9375
vt 0.3125 0.9375
vt 0.3125 0.984375
vt 0.3125 0.8984375
vt 0.2890625 0.9375
vt 0.3125 0.9375
vt 0.3125 0.8984375
vt 0.2890625 0.8984375
vt 0.2890625 0.9375
vt 0.2890625 0.8984375
vt 0.25 0.9375
vt 0.2890625 0.9375
vt 0.3125 0.9375
vt 0.25 0.984375
vt 0.3125 0.984375
vt 0.3125 0.9375
vt 0.25 0.9375
vt 0.25 0.984375
vt 0.2890625 0.8984375
vt 0.3125 0.9375
vt 0.2890625 0.9375
vt 0.2890625 0.8984375
vt 0.3125 0.8984375
vt 0.3125 0.9375
vt 0.328125 0.953125
vt 0.390625 0.90625
vt 0.390625 0.953125
vt 0.328125 0.953125
vt 0.328125 0.90625
vt 0.390625 0.90625
vt 0.328125 0.90625
vt 0.390625 0.875
vt 0.390625 0.90625
vn 0 1 0
vn 0 1 0
vn 0 1 0
vn -0.5154099876040583 -0.09267289960663536 0.8519179997843004
vn -0.5154099876040583 -0.09267289960663536 0.8519179997843004
vn -0.5154099876040583 -0.09267289960663536 0.8519179997843004
vn -0.5463453998612284 -0.136586727716261 0.8263478504009304
vn -0.5463453998612284 -0.136586727716261 0.8263478504009304
vn -0.5463453998612284 -0.136586727716261 0.8263478504009304
vn -0.5133571531970199 -0.12833886839213118 -0.8485243473945097
vn -0.5133571531970199 -0.12833886839213118 -0.8485243473945097
vn -0.5133571531970199 -0.12833886839213118 -0.8485243473945097
vn -0.5582084253311337 -0.06719138729454663 -0.8269756171512981
vn -0.5582084253311337 -0.06719138729454663 -0.8269756171512981
vn -0.5582084253311337 -0.06719138729454663 -0.8269756171512981
vn 0.970142503546802 -0.2425356114304524 0
vn 0.970142503546802 -0.2425356114304524 0
vn 0.970142503546802 -0.2425356114304524 0
vn 0.9718916365507769 -0.23535123088693874 -0.006036963032456009
vn 0.9718916365507769 -0.23535123088693874 -0.006036963032456009
vn 0.9718916365507769 -0.23535123088693874 -0.006036963032456009
vn -0.5594694383558946 0.0034536413279687575 -0.828843784984431
vn -0.5594694383558946 0.0034536413279687575 -0.828843784984431
vn -0.5594694383558946 0.0034536413279687575 -0.828843784984431
vn -0.5546999442612542 0 -0.8320504623137718
vn -0.5546999442612542 0 -0.8320504623137718
vn -0.5546999442612542 0 -0.8320504623137718
vn 1.573070256964699e-7 -0.9999999999999598 2.359606933623675e-7
vn 1.573070256964699e-7 -0.9999999999999598 2.359606933623675e-7
vn 1.573070256964699e-7 -0.9999999999999598 2.359606933623675e-7
vn 0.9999807088205818 0 -0.00621143998495928
vn 0.9999807088205818 0 -0.00621143998495928
vn 0.9999807088205818 0 -0.00621143998495928
vn 0.9999807117637549 -3.178853830266928e-7 -0.006210966136824245
vn 0.9999807117637549 -3.178853830266928e-7 -0.006210966136824245
vn 0.9999807117637549 -3.178853830266928e-7 -0.006210966136824245
vn -0.5515141258268735 1.7532166077871931e-7 0.8341655525214337
vn -0.5515141258268735 1.7532166077871931e-7 0.8341655525214337
vn -0.5515141258268735 1.7532166077871931e-7 0.8341655525214337
vn -0.5562804364331183 -0.0034622183101242123 0.8309874181274661
vn -0.5562804364331183 -0.0034622183101242123 0.8309874181274661
vn -0.5562804364331183 -0.0034622183101242123 0.8309874181274661
vn 0 -1 0
vn 0 -1 0
vn 0 -1 0
vn 0 -1 0
vn 0 -1 0
vn 0 -1 0
vn 1 0 0
vn 1 0 0
vn 1 0 0
vn 1 0 0
vn 1 0 0
vn 1 0 0
vn -0.7071067769718626 -0.7071067854012323 0
vn -0.7071067769718626 -0.7071067854012323 0
vn -0.7071067769718626 -0.7071067854012323 0
vn -0.7071067769718627 -0.7071067854012324 0
vn -0.7071067769718627 -0.7071067854012324 0
vn -0.7071067769718627 -0.7071067854012324 0
vn -0.7071067769718627 -0.7071067854012324 0
vn -0.7071067769718627 -0.7071067854012324 0
vn -0.7071067769718627 -0.7071067854012324 0
vn -0.7071067769718626 -0.7071067854012323 0
vn -0.7071067769718626 -0.7071067854012323 0
vn -0.7071067769718626 -0.7071067854012323 0
vn -1 0 0
vn -1 0 0
vn -1 0 0
vn -1 0 0
vn -1 0 0
vn -1 0 0
vn -0.44721359123499677 0 0.8944271931323964
vn -0.44721359123499677 0 0.8944271931323964
vn -0.44721359123499677 0 0.8944271931323964
vn -0.447213595499958 0 0.894427190999916
vn -0.447213595499958 0 0.894427190999916
vn -0.447213595499958 0 0.894427190999916
vn -0.447213595499958 0 0.894427190999916
vn -0.447213595499958 0 0.894427190999916
vn -0.447213595499958 0 0.894427190999916
vn -0.4472136026082266 0 -0.8944271874457813
vn -0.4472136026082266 0 -0.8944271874457813
vn -0.4472136026082266 0 -0.8944271874457813
vn -0.4472136026082266 0 -0.8944271874457813
vn -0.4472136026082266 0 -0.8944271874457813
vn -0.4472136026082266 0 -0.8944271874457813
vn -0.44721359123499677 0 -0.8944271931323964
vn -0.44721359123499677 0 -0.8944271931323964
vn -0.44721359123499677 0 -0.8944271931323964
vn -0.447213595499958 0 -0.894427190999916
vn -0.447213595499958 0 -0.894427190999916
vn -0.447213595499958 0 -0.894427190999916
vn -0.447213595499958 0 -0.894427190999916
vn -0.447213595499958 0 -0.894427190999916
vn -0.447213595499958 0 -0.894427190999916
vn -0.4472136026082266 0 0.8944271874457813
vn -0.4472136026082266 0 0.8944271874457813
vn -0.4472136026082266 0 0.8944271874457813
vn -0.4472136026082266 0 0.8944271874457813
vn -0.4472136026082266 0 0.8944271874457813
vn -0.4472136026082266 0 0.8944271874457813
vn 0 1 0
vn 0 1 0
vn 0 1 0
vn 0 1 0
vn 0 1 0
vn 0 1 0
vn 0 1 0
vn 0 1 0
vn 0 1 0
g unit01UpperArm
usemtl 0
f 1/1/1 2/2/2 3/3/3
f 4/4/4 5/5/5 6/6/6
f 4/7/7 7/8/8 5/9/9
f 8/10/10 7/11/11 4/12/12
f 8/13/13 9/14/14 7/15/15
f 6/16/16 9/17/17 8/18/18
f 6/19/19 5/20/20 9/21/21
f 9/22/22 10/23/23 7/24/24
f 9/25/25 11/26/26 10/27/27
f 10/28/28 11/29/29 12/30/30
f 5/31/31 11/32/32 9/33/33
f 5/34/34 12/35/35 11/36/36
f 7/37/37 12/38/38 5/39/39
f 7/40/40 10/41/41 12/42/42
f 13/43/43 14/44/44 15/45/45
f 13/46/46 16/47/47 14/48/48
f 17/49/49 18/50/50 19/51/51
f 17/52/52 20/53/53 18/54/54
f 21/55/55 16/56/56 22/57/57
f 23/58/58 22/59/59 24/60/60
f 23/61/61 21/62/62 22/63/63
f 14/64/64 23/65/65 24/66/66
f 24/67/67 25/68/68 1/69/69
f 24/70/70 22/71/71 25/72/72
f 16/73/73 26/74/74 22/75/75
f 22/76/76 27/77/77 25/78/78
f 22/79/79 28/80/80 27/81/81
f 15/82/82 29/83/83 30/84/84
f 15/85/85 14/86/86 29/87/87
f 14/88/88 24/89/89 29/90/90
f 30/91/91 1/92/92 3/93/93
f 30/94/94 24/95/95 1/96/96
f 16/97/97 28/98/98 26/99/99
f 16/100/100 13/101/101 28/102/102
f 1/103/103 31/104/104 2/105/105
f 1/106/106 25/107/107 31/108/108
f 25/109/109 27/110/110 31/111/111
