o Default
v 0.0253906287252903 -0.9375 -0.025390625
v -0.0371093712747097 0.0625 0.412109375
v -0.5013951063156128 0.0625 0.0013950880384072661
v 0.4896763563156128 0.0625 0.01032366044819355
v -0.0058593712747097015 1.0625 0.005859375465661287
v 0.0253906287252903 0.0625 -0.400390625
vt 0.890625 0.4296875
vt 0.890625 0.4921875
vt 0.921875 0.4921875
vt 0.890625 0.4921875
vt 0.890625 0.5546875
vt 0.890625 0.5546875
vt 0.921875 0.4921875
vt 0.890625 0.4921875
vt 0.890625 0.5546875
vt 0.890625 0.4296875
vt 0.859375 0.4921875
vt 0.890625 0.4921875
vt 0.890625 0.4296875
vt 0.890625 0.4921875
vt 0.921875 0.4921875
vt 0.921875 0.4921875
vt 0.890625 0.4921875
vt 0.890625 0.5546875
vt 0.890625 0.4296875
vt 0.859375 0.4921875
vt 0.890625 0.4921875
vt 0.890625 0.4921875
vt 0.890625 0.5546875
vt 0.890625 0.5546875
vn -0.6215852482053827 -0.34626353422766243 0.7026616142053166
vn -0.6215852482053827 -0.34626353422766243 0.7026616142053166
vn -0.6215852482053827 -0.34626353422766243 0.7026616142053166
vn 0.5802194640036018 0.29091559961492086 0.760732204847451
vn 0.5802194640036018 0.29091559961492086 0.760732204847451
vn 0.5802194640036018 0.29091559961492086 0.760732204847451
vn -0.6301330445702165 0.3090734208153084 0.7123243409333933
vn -0.6301330445702165 0.3090734208153084 0.7123243409333933
vn -0.6301330445702165 0.3090734208153084 0.7123243409333933
vn 0.5792604393774922 -0.2960664549647716 0.7594748169734054
vn 0.5792604393774922 -0.2960664549647716 0.7594748169734054
vn 0.5792604393774922 -0.2960664549647716 0.7594748169734054
vn 0.6378898808651043 -0.27040984872558965 -0.7210929299349057
vn 0.6378898808651043 -0.27040984872558965 -0.7210929299349057
vn 0.6378898808651043 -0.27040984872558965 -0.7210929299349057
vn 0.6301330490904969 0.30907342011834804 -0.7123243372370908
vn 0.6301330490904969 0.30907342011834804 -0.7123243372370908
vn 0.6301330490904969 0.30907342011834804 -0.7123243372370908
vn -0.5811647062134574 -0.2857393260333725 -0.7619715360889933
vn -0.5811647062134574 -0.2857393260333725 -0.7619715360889933
vn -0.5811647062134574 -0.2857393260333725 -0.7619715360889933
vn -0.5802194569358308 0.29091560231479446 -0.7607322092056508
vn -0.5802194569358308 0.29091560231479446 -0.7607322092056508
vn -0.5802194569358308 0.29091560231479446 -0.7607322092056508
g unit01Core
usemtl 0
f 1/1/1 2/2/2 3/3/3
f 2/4/4 4/5/5 5/6/6
f 3/7/7 2/8/8 5/9/9
f 1/10/10 4/11/11 2/12/12
f 1/13/13 6/14/14 4/15/15
f 4/16/16 6/17/17 5/18/18
f 1/19/19 3/20/20 6/21/21
f 6/22/22 3/23/23 5/24/24
