o Default
v 0.8385670185089111 1.0827722549438477 -0.7940704822540283
v 0.6114330291748047 -0.1827722042798996 0.49407052993774414
v 0.7633751630783081 1.3327722549438477 -0.36763623356819153
v 0.6866248846054077 -0.4327722191810608 0.06763626635074615
v -0.8385670185089111 1.0827722549438477 -0.7940704822540283
v -0.6114329695701599 -0.1827722042798996 0.49407052993774414
v -0.7633751630783081 1.3327722549438477 -0.3676362633705139
v -0.6866248846054077 -0.4327722191810608 0.06763625144958496
v -0.625 0.32499998807907104 0.8500000238418579
v 0.625 0.574999988079071 1.100000023841858
v 0.625 0.32499998807907104 0.8500000238418579
v -0.625 0.574999988079071 1.100000023841858
v -0.625 -0.550000011920929 0.8500000238418579
v 0.625 -0.800000011920929 1.100000023841858
v 0.625 -0.550000011920929 0.8500000238418579
v -0.625 -0.800000011920929 1.100000023841858
v 0.625 -0.550000011920929 -1.399999976158142
v -0.625 0.32499998807907104 -1.399999976158142
v 0.625 0.32499998807907104 -1.399999976158142
v -0.625 -0.550000011920929 -1.399999976158142
vt 0.6015625 0.5
vt 0.6328125 0.390625
vt 0.6328125 0.5
vt 0.6015625 0.5
vt 0.6015625 0.390625
vt 0.6328125 0.390625
vt 0.6015625 0.5
vt 0.6328125 0.390625
vt 0.6328125 0.5
vt 0.6015625 0.5
vt 0.6015625 0.390625
vt 0.6328125 0.390625
vt 0.984375 0.8046875
vt 0.9609375 0.7265625
vt 0.984375 0.7265625
vt 0.984375 0.8046875
vt 0.9609375 0.8046875
vt 0.9609375 0.7265625
vt 0.984375 0.8046875
vt 0.9609375 0.7265625
vt 0.984375 0.7265625
vt 0.984375 0.8046875
vt 0.9609375 0.8046875
vt 0.9609375 0.7265625
vt 0.8359375 0.8984375
vt 0.890625 0.8203125
vt 0.890625 0.8984375
vt 0.8359375 0.8984375
vt 0.8359375 0.8203125
vt 0.890625 0.8203125
vt 0.90625 0.8984375
vt 0.9609375 0.8203125
vt 0.9609375 0.8984375
vt 0.90625 0.8984375
vt 0.90625 0.8203125
vt 0.9609375 0.8203125
vt 0.8671875 0.6640625
vt 0.9453125 0.8046875
vt 0.8671875 0.8046875
vt 0.8671875 0.6640625
vt 0.9453125 0.6640625
vt 0.9453125 0.8046875
vt 0.8515625 0.6640625
vt 0.796875 0.8046875
vt 0.796875 0.6640625
vt 0.8515625 0.6640625
vt 0.8515625 0.8046875
vt 0.796875 0.8046875
vt 0.8515625 0.8046875
vt 0.796875 0.6640625
vt 0.796875 0.8046875
vt 0.8515625 0.8046875
vt 0.8515625 0.6640625
vt 0.796875 0.6640625
vt 0.78125 0.6640625
vt 0.703125 0.8046875
vt 0.78125 0.8046875
vt 0.78125 0.6640625
vt 0.703125 0.6640625
vt 0.703125 0.8046875
vn -0.9848077562922299 -7.659975804912088e-10 -0.17364815906500128
vn -0.9848077562922299 -7.659975804912088e-10 -0.17364815906500128
vn -0.9848077562922299 -7.659975804912088e-10 -0.17364815906500128
vn -0.9848077569421048 3.1020712188783066e-9 -0.17364815537937653
vn -0.9848077569421048 3.1020712188783066e-9 -0.17364815537937653
vn -0.9848077569421048 3.1020712188783066e-9 -0.17364815537937653
vn -0.9848077520801952 -2.0546392347209572e-8 0.1736481829526368
vn -0.9848077520801952 -2.0546392347209572e-8 0.1736481829526368
vn -0.9848077520801952 -2.0546392347209572e-8 0.1736481829526368
vn -0.9848077399371921 5.1728970560384646e-8 0.1736482518190068
vn -0.9848077399371921 5.1728970560384646e-8 0.1736482518190068
vn -0.9848077399371921 5.1728970560384646e-8 0.1736482518190068
vn 0 0.7071067811865475 -0.7071067811865475
vn 0 0.7071067811865475 -0.7071067811865475
vn 0 0.7071067811865475 -0.7071067811865475
vn 0 0.7071067811865475 -0.7071067811865475
vn 0 0.7071067811865475 -0.7071067811865475
vn 0 0.7071067811865475 -0.7071067811865475
vn 0 0.7071067811865475 0.7071067811865475
vn 0 0.7071067811865475 0.7071067811865475
vn 0 0.7071067811865475 0.7071067811865475
vn 0 0.7071067811865475 0.7071067811865475
vn 0 0.7071067811865475 0.7071067811865475
vn 0 0.7071067811865475 0.7071067811865475
vn 0 0 1
vn 0 0 1
vn 0 0 1
vn 0 0 1
vn 0 0 1
vn 0 0 1
vn 0 0 -1
vn 0 0 -1
vn 0 0 -1
vn 0 0 -1
vn 0 0 -1
vn 0 0 -1
vn 0 -1 0
vn 0 -1 0
vn 0 -1 0
vn 0 -1 0
vn 0 -1 0
vn 0 -1 0
vn 1 0 0
vn 1 0 0
vn 1 0 0
vn 1 0 0
vn 1 0 0
vn 1 0 0
vn -1 0 0
vn -1 0 0
vn -1 0 0
vn -1 0 0
vn -1 0 0
vn -1 0 0
vn 0 1 0
vn 0 1 0
vn 0 1 0
vn 0 1 0
vn 0 1 0
vn 0 1 0
g unit01Head
usemtl 0
f 1/1/1 2/2/2 3/3/3
f 1/4/4 4/5/5 2/6/6
f 5/7/7 6/8/8 7/9/9
f 5/10/10 8/11/11 6/12/12
f 9/13/13 10/14/14 11/15/15
f 9/16/16 12/17/17 10/18/18
f 13/19/19 14/20/20 15/21/21
f 13/22/22 16/23/23 14/24/24
f 13/25/25 11/26/26 9/27/27
f 13/28/28 15/29/29 11/30/30
f 17/31/31 18/32/32 19/33/33
f 17/34/34 20/35/35 18/36/36
f 15/37/37 20/38/38 17/39/39
f 15/40/40 13/41/41 20/42/42
f 15/43/43 19/44/44 11/45/45
f 15/46/46 17/47/47 19/48/48
f 20/49/49 9/50/50 18/51/51
f 20/52/52 13/53/53 9/54/54
f 9/55/55 19/56/56 18/57/57
f 9/58/58 11/59/59 19/60/60
