o Default
v 0 -0.00009209826384903863 0.00010000499605666846
v 1.875 0.49992039799690247 -0.12489999830722809
v 0 -0.00007959826325532049 -0.12489999830722809
v 1.875 0.49990788102149963 0.00010000499605666846
v 0 -0.125 0
v 1.875 0.375 0
v 3.75 0.375 -0.125
v 3.75 0.49992042779922485 -0.12489999830722809
v 1.875 0.375 -0.125
v 0 -0.125 -0.1250000149011612
v 0 -0.25 -0.0625
v 1.875 0.3125 -0.0625
v 0 -0.1875 -0.0625
v 1.875 0.25 -0.0625
v 3.625 0.125 -0.2500000298023224
v 3.625 0.375 0.12499997764825821
v 3.625 0.375 -0.2500000298023224
v 3.625 0.125 0.12499997764825821
v 2.75 0.125 -0.2500000298023224
v 2.75 0.375 0.12499997764825821
v 2.75 0.375 -0.2500000298023224
v 2.75 0.125 0.12499997764825821
v 1.875 0.125 -0.2500000298023224
v 1.875 0.375 0.12499997764825821
v 1.875 0.375 -0.2500000298023224
v 1.875 0.125 0.12499997764825821
v 3.75 0.3749999701976776 -1.1594432969275204e-8
v 3.75 0.49990788102149963 0.00010000499605666846
v 3.75 0.3125 -0.0625
v 3.75 0.25 -0.0625
v 1 -0.125 0
v 0.875 0 0
v 1 0 0
v 0.875 -0.125 0
vt 0.03125 0.8125
vt 0.5 0.84375
vt 0.03125 0.84375
vt 0.03125 0.8125
vt 0.5 0.8125
vt 0.5 0.84375
vt 0.03125 0.90625
vt 0.5 0.9375
vt 0.03125 0.9375
vt 0.03125 0.90625
vt 0.5 0.90625
vt 0.5 0.9375
vt 0.96875 0.9375
vt 0.5 0.90625
vt 0.96875 0.90625
vt 0.96875 0.9375
vt 0.5 0.9375
vt 0.5 0.90625
vt 0.03125 0.71875
vt 0.5 0.75
vt 0.03125 0.75
vt 0.03125 0.71875
vt 0.5 0.71875
vt 0.5 0.75
vt 0.03125 0.5
vt 0.5 0.53125
vt 0.03125 0.53125
vt 0.03125 0.5
vt 0.5 0.5
vt 0.5 0.53125
vt 0.03125 0.59375
vt 0.125 0.65625
vt 0.03125 0.65625
vt 0.03125 0.59375
vt 0.125 0.59375
vt 0.125 0.65625
vt 0.03125 0.59375
vt 0.125 0.65625
vt 0.03125 0.65625
vt 0.03125 0.59375
vt 0.125 0.59375
vt 0.125 0.65625
vt 0.03125 0.59375
vt 0.125 0.65625
vt 0.03125 0.65625
vt 0.03125 0.59375
vt 0.125 0.59375
vt 0.125 0.65625
vt 0.1875 0.625
vt 0.21875 0.65625
vt 0.1875 0.65625
vt 0.1875 0.625
vt 0.21875 0.625
vt 0.21875 0.65625
vt 0.5 0.9375
vt 0.03125 0.90625
vt 0.5 0.90625
vt 0.5 0.9375
vt 0.03125 0.9375
vt 0.03125 0.90625
vt 0.5 0.8125
vt 0.96875 0.84375
vt 0.5 0.84375
vt 0.5 0.8125
vt 0.96875 0.8125
vt 0.96875 0.84375
vt 0.5 0.90625
vt 0.96875 0.9375
vt 0.5 0.9375
vt 0.5 0.90625
vt 0.96875 0.90625
vt 0.96875 0.9375
vt 0.5 0.5
vt 0.96875 0.53125
vt 0.5 0.53125
vt 0.5 0.5
vt 0.96875 0.5
vt 0.96875 0.53125
vt 0.5 0.71875
vt 0.96875 0.75
vt 0.5 0.75
vt 0.5 0.71875
vt 0.96875 0.71875
vt 0.96875 0.75
vt 0 0.96875
vt 0.03125 1
vt 0 1
vt 0 0.96875
vt 0.03125 0.96875
vt 0.03125 1
vn -0.2576626475582641 0.9662349355706229 0.00009662349559303261
vn -0.2576626475582641 0.9662349355706229 0.00009662349559303261
vn -0.2576626475582641 0.9662349355706229 0.00009662349559303261
vn -0.25766263938819667 0.9662349377361771 0.0000967547090351385
vn -0.25766263938819667 0.9662349377361771 0.0000967547090351385
vn -0.25766263938819667 0.9662349377361771 0.0000967547090351385
vn 0.00021350121423816576 -0.000800629586562647 0.9999996567046895
vn 0.00021350121423816576 -0.000800629586562647 0.9999996567046895
vn 0.00021350121423816576 -0.000800629586562647 0.9999996567046895
vn 0.0002135012584902682 -0.0008006297193385057 0.9999996567045738
vn 0.0002135012584902682 -0.0008006297193385057 0.9999996567045738
vn 0.0002135012584902682 -0.0008006297193385057 0.9999996567045738
vn -1.272396851818264e-11 0.0008005228807753128 -0.9999996795815074
vn -1.272396851818264e-11 0.0008005228807753128 -0.9999996795815074
vn -1.272396851818264e-11 0.0008005228807753128 -0.9999996795815074
vn 0 0.0008005230717563381 -0.9999996795813544
vn 0 0.0008005230717563381 -0.9999996795813544
vn 0 0.0008005230717563381 -0.9999996795813544
vn 0.2576626505603324 -0.9662349396012464 0
vn 0.2576626505603324 -0.9662349396012464 0
vn 0.2576626505603324 -0.9662349396012464 0
vn 0.25766265056033233 -0.9662349396012462 0
vn 0.25766265056033233 -0.9662349396012462 0
vn 0.25766265056033233 -0.9662349396012462 0
vn 0 0 1
vn 0 0 1
vn 0 0 1
vn 0 0 1
vn 0 0 1
vn 0 0 1
vn -1 0 0
vn -1 0 0
vn -1 0 0
vn -1 0 0
vn -1 0 0
vn -1 0 0
vn -1 0 0
vn -1 0 0
vn -1 0 0
vn -1 0 0
vn -1 0 0
vn -1 0 0
vn -1 0 0
vn -1 0 0
vn -1 0 0
vn -1 0 0
vn -1 0 0
vn -1 0 0
vn 1 0 0
vn 1 0 0
vn 1 0 0
vn 1 0 0
vn 1 0 0
vn 1 0 0
vn -0.00021347281267426749 0.0008005230535161629 -0.9999996567960406
vn -0.00021347281267426749 0.0008005230535161629 -0.9999996567960406
vn -0.00021347281267426749 0.0008005230535161629 -0.9999996567960406
vn -0.0002134966699641026 0.0008006423146775411 -0.999999656695469
vn -0.0002134966699641026 0.0008006423146775411 -0.999999656695469
vn -0.0002134966699641026 0.0008006423146775411 -0.999999656695469
vn -1.589457186041531e-8 0.9999999949864107 0.00010013580007439996
vn -1.589457186041531e-8 0.9999999949864107 0.00010013580007439996
vn -1.589457186041531e-8 0.9999999949864107 0.00010013580007439996
vn 0 0.9999999949625081 0.00010037421864360647
vn 0 0.9999999949625081 0.00010037421864360647
vn 0 0.9999999949625081 0.00010037421864360647
vn 0 -0.0008006297375859734 0.9999996794959604
vn 0 -0.0008006297375859734 0.9999996794959604
vn 0 -0.0008006297375859734 0.9999996794959604
vn 6.1709684619356556e-9 -0.0008007223703194266 0.9999996794217915
vn 6.1709684619356556e-9 -0.0008007223703194266 0.9999996794217915
vn 6.1709684619356556e-9 -0.0008007223703194266 0.9999996794217915
vn 0 0 1
vn 0 0 1
vn 0 0 1
vn 0 0 1
vn 0 0 1
vn 0 0 1
vn -1.5894571940104163e-8 -0.9999999999999998 0
vn -1.5894571940104163e-8 -0.9999999999999998 0
vn -1.5894571940104163e-8 -0.9999999999999998 0
vn 0 -0.9999999999999716 -2.3841860121618366e-7
vn 0 -0.9999999999999716 -2.3841860121618366e-7
vn 0 -0.9999999999999716 -2.3841860121618366e-7
vn 0 0 -1
vn 0 0 -1
vn 0 0 -1
vn 0 0 -1
vn 0 0 -1
vn 0 0 -1
g Scene
usemtl 0
f 1/1/1 2/2/2 3/3/3
f 1/4/4 4/5/5 2/6/6
f 5/7/7 4/8/8 1/9/9
f 5/10/10 6/11/11 4/12/12
f 7/13/13 2/14/14 8/15/15
f 7/16/16 9/17/17 2/18/18
f 10/19/19 6/20/20 5/21/21
f 10/22/22 9/23/23 6/24/24
f 11/25/25 12/26/26 13/27/27
f 11/28/28 14/29/29 12/30/30
f 15/31/31 16/32/32 17/33/33
f 15/34/34 18/35/35 16/36/36
f 19/37/37 20/38/38 21/39/39
f 19/40/40 22/41/41 20/42/42
f 23/43/43 24/44/44 25/45/45
f 23/46/46 26/47/47 24/48/48
f 27/49/49 8/50/50 28/51/51
f 27/52/52 7/53/53 8/54/54
f 9/55/55 3/56/56 2/57/57
f 9/58/58 10/59/59 3/60/60
f 4/61/61 8/62/62 2/63/63
f 4/64/64 28/65/65 8/66/66
f 6/67/67 28/68/68 4/69/69
f 6/70/70 27/71/71 28/72/72
f 14/73/73 29/74/74 12/75/75
f 14/76/76 30/77/77 29/78/78
f 9/79/79 27/80/80 6/81/81
f 9/82/82 7/83/83 27/84/84
f 31/85/85 32/86/86 33/87/87
f 31/88/88 34/89/89 32/90/90
