{"asset":{"version":"2.0","generator":"THREE.GLTFExporter"},"scenes":[{"name":"default","nodes":[0]}],"scene":0,"nodes":[{"mesh":0}],"bufferViews":[{"buffer":0,"byteOffset":0,"byteLength":13944,"target":34962,"byteStride":12},{"buffer":0,"byteOffset":13944,"byteLength":13944,"target":34962,"byteStride":12},{"buffer":0,"byteOffset":27888,"byteLength":9296,"target":34962,"byteStride":8},{"buffer":0,"byteOffset":37184,"byteLength":9296,"target":34962,"byteStride":8},{"buffer":0,"byteOffset":46480,"byteLength":3408,"target":34963}],"buffers":[{"byteLength":49888,"uri":"data:application/octet-stream;base64,"}],"accessors":[{"bufferView":0,"componentType":5126,"count":1162,"max":[12.073649406433105,11.625,2],"min":[-6.145261287689209,-11.829580307006836,-6],"type":"VEC3"},{"bufferView":1,"componentType":5126,"count":1162,"max":[1,1,1],"min":[-1,-1,-1],"type":"VEC3"},{"bufferView":2,"componentType":5126,"count":1162,"max":[1,0.6875],"min":[0,0],"type":"VEC2"},{"bufferView":3,"componentType":5126,"count":1162,"max":[-1,0],"min":[-1,0],"type":"VEC2"},{"bufferView":4,"componentType":5123,"count":1704,"max":[1161],"min":[0],"type":"SCALAR"}],"materials":[{"pbrMetallicRoughness":{"metallicFactor":0.5,"roughnessFactor":0.5,"baseColorTexture":{"index":0}},"alphaMode":"MASK","alphaCutoff":0.01,"doubleSided":true,"name":"testMech_0"}],"textures":[{"sampler":0,"source":0,"name":"testMech_0"}],"samplers":[{"magFilter":9728,"minFilter":9728,"wrapS":33071,"wrapT":33071}],"images":[{"mimeType":"image/png","uri":"data:image/png;base64,"}],"meshes":[{"primitives":[{"mode":4,"attributes":{"POSITION":0,"NORMAL":1,"TEXCOORD_0":2,"_UVANIMATION":3},"indices":4,"material":0}]}]}