# Blender 4.0.0
# www.blender.org
mtllib columnsSmallFlipped.mtl
o Default
v -28.530006 -6.001364 -2.479724
v -28.226120 -6.001365 -4.203135
v -29.949535 -6.001365 -4.507022
v -30.253422 -6.001364 -2.783608
v -28.226120 -6.001365 -4.203135
v -28.530006 -5.376364 -2.479724
v -28.226120 -5.376365 -4.203135
v -28.530006 -6.001364 -2.479724
v -28.530006 -6.001364 -2.479724
v -30.253422 -5.376364 -2.783608
v -28.530006 -5.376364 -2.479724
v -30.253422 -6.001364 -2.783608
v -30.253422 -6.001364 -2.783608
v -29.949535 -5.376365 -4.507022
v -30.253422 -5.376364 -2.783608
v -29.949535 -6.001365 -4.507022
v -18.441822 -5.375427 1.361798
v -23.081579 -5.375114 1.445594
v -20.995211 -5.375114 -0.870635
v -20.835712 -5.375426 3.370511
v -20.995211 -4.750114 -0.870635
v -25.860527 -4.749789 -0.264817
v -24.013344 -4.749789 -2.741485
v -23.081579 -4.750114 1.445594
v -20.995211 -5.375114 -0.870635
v -25.860527 -5.374789 -0.264817
v -24.013344 -5.374789 -2.741485
v -23.081579 -5.375114 1.445594
v -15.636328 -4.750839 4.818482
v -20.835712 -4.750426 3.370511
v -18.441822 -4.750427 1.361798
v -18.342655 -4.750839 6.380984
v -14.581598 -13.001363 8.395325
v -14.856119 -5.376364 9.419844
v -14.581598 -5.376364 8.395324
v -14.856119 -13.001363 9.419845
v -14.856119 -13.001363 9.419845
v -15.880640 -5.376364 9.145326
v -14.856119 -5.376364 9.419844
v -15.880640 -13.001363 9.145327
v -15.606119 -13.001363 8.120807
v -14.581598 -5.376364 8.395324
v -15.606119 -5.376364 8.120806
v -14.581598 -13.001363 8.395325
v -24.013344 -5.374789 -2.741485
v -28.588259 -5.374476 -1.703290
v -27.315985 -5.374477 -4.468808
v -25.860527 -5.374789 -0.264817
v -27.315985 -5.374477 -4.468808
v -31.051693 -5.374177 -2.409936
v -30.759159 -5.374177 -5.333222
v -28.588259 -5.374476 -1.703290
v -107.103882 -87.875000 0.000007
v -107.228882 -87.750000 0.000007
v -107.103882 -87.750000 0.000007
v -107.228882 -87.875000 0.000007
v -15.551394 -6.001363 9.965597
v -14.910845 -6.001364 7.575054
v -14.035849 -6.001364 9.090599
v -16.426390 -6.001364 8.450052
v -27.315985 -5.374477 -4.468808
v -30.759159 -4.749177 -5.333222
v -27.315985 -4.749477 -4.468808
v -30.759159 -5.374177 -5.333222
v -14.035849 -6.001364 9.090599
v -15.551394 -5.376363 9.965597
v -14.035849 -5.376364 9.090599
v -15.551394 -6.001363 9.965597
v -96.603882 -76.375000 0.000006
v -96.728882 -76.250000 0.000006
v -96.603882 -76.250000 0.000006
v -96.728882 -76.375000 0.000006
v -13.227835 -5.376363 9.490116
v -14.261328 -4.751364 7.200054
v -13.227835 -4.751363 9.490116
v -14.261328 -5.376364 7.200054
v -14.261328 -5.376364 7.200054
v -15.636328 -4.750839 4.818482
v -14.261328 -4.751364 7.200054
v -15.636328 -5.375839 4.818482
v -15.636328 -5.375839 4.818482
v -18.441822 -4.750427 1.361798
v -15.636328 -4.750839 4.818482
v -18.441822 -5.375427 1.361798
v -18.441822 -5.375427 1.361798
v -20.995211 -4.750114 -0.870635
v -18.441822 -4.750427 1.361798
v -20.995211 -5.375114 -0.870635
v -18.441822 -4.750427 1.361798
v -23.081579 -4.750114 1.445594
v -20.995211 -4.750114 -0.870635
v -20.835712 -4.750426 3.370511
v -20.995211 -5.375114 -0.870635
v -24.013344 -4.749789 -2.741485
v -20.995211 -4.750114 -0.870635
v -24.013344 -5.374789 -2.741485
v -24.013344 -5.374789 -2.741485
v -27.315985 -4.749477 -4.468808
v -24.013344 -4.749789 -2.741485
v -27.315985 -5.374477 -4.468808
v -31.051693 -5.374177 -2.409936
v -30.759159 -4.749177 -5.333222
v -31.051693 -4.749177 -2.409937
v -30.759159 -5.374177 -5.333222
v -24.013344 -4.749789 -2.741485
v -28.588259 -4.749476 -1.703290
v -27.315985 -4.749477 -4.468808
v -25.860527 -4.749789 -0.264817
v -14.261328 -4.751364 7.200054
v -18.342655 -4.750839 6.380984
v -15.636328 -4.750839 4.818482
v -16.972813 -4.751113 8.765530
v -13.227835 -5.376363 9.490116
v -16.972813 -5.376114 8.765530
v -14.261328 -5.376364 7.200054
v -15.934164 -5.376363 11.052617
v -14.910845 -6.001364 7.575054
v -14.035849 -5.376364 9.090599
v -14.910845 -5.376364 7.575054
v -14.035849 -6.001364 9.090599
v -31.051693 -5.374177 -2.409936
v -28.588259 -4.749476 -1.703290
v -31.051693 -4.749177 -2.409937
v -28.588259 -5.374476 -1.703290
v -16.426390 -6.001364 8.450052
v -14.910845 -5.376364 7.575054
v -16.426390 -5.376364 8.450052
v -14.910845 -6.001364 7.575054
v -15.551394 -6.001363 9.965597
v -16.426390 -5.376364 8.450052
v -15.551394 -5.376363 9.965597
v -16.426390 -6.001364 8.450052
v -18.342659 -5.375838 6.380984
v -16.972813 -4.751113 8.765530
v -18.342655 -4.750839 6.380984
v -16.972813 -5.376114 8.765530
v -29.949535 -6.001365 -4.507022
v -28.226120 -5.376365 -4.203135
v -29.949535 -5.376365 -4.507022
v -28.226120 -6.001365 -4.203135
v -15.551394 -13.001363 9.965598
v -14.910845 -13.001363 7.575055
v -14.035849 -13.001363 9.090600
v -16.426390 -13.001363 8.450053
v -15.551394 -13.626363 9.965598
v -16.426390 -13.001363 8.450053
v -15.551394 -13.001363 9.965598
v -16.426390 -13.626363 8.450053
v -16.426390 -13.626363 8.450053
v -14.910845 -13.001363 7.575055
v -16.426390 -13.001363 8.450053
v -14.910845 -13.626363 7.575055
v -14.035849 -13.626363 9.090600
v -15.551394 -13.001363 9.965598
v -14.035849 -13.001363 9.090600
v -15.551394 -13.626363 9.965598
v -14.910845 -13.626363 7.575055
v -14.035849 -13.001363 9.090600
v -14.910845 -13.001363 7.575055
v -14.035849 -13.626363 9.090600
v -16.972813 -5.376114 8.765530
v -15.934165 -4.751363 11.052618
v -16.972813 -4.751113 8.765530
v -15.934164 -5.376363 11.052617
v -15.551394 -13.626363 9.965598
v -14.910845 -13.626363 7.575055
v -14.035849 -13.626363 9.090600
v -16.426390 -13.626363 8.450053
v -20.847548 -13.001364 2.338314
v -21.063246 -13.001364 -0.127142
v -19.722670 -13.001364 0.997737
v -22.188126 -13.001364 1.213434
v -20.847548 -13.626364 2.338314
v -22.188126 -13.001364 1.213434
v -20.847548 -13.001364 2.338314
v -22.188126 -13.626364 1.213434
v -14.261328 -5.376364 7.200054
v -18.342659 -5.375838 6.380984
v -15.636328 -5.375839 4.818482
v -16.972813 -5.376114 8.765530
v -22.188126 -13.626364 1.213434
v -21.063246 -13.001364 -0.127142
v -22.188126 -13.001364 1.213434
v -21.063246 -13.626364 -0.127142
v -15.636328 -5.375839 4.818482
v -20.835712 -5.375426 3.370511
v -18.441822 -5.375427 1.361798
v -18.342659 -5.375838 6.380984
v -28.588259 -5.374476 -1.703290
v -25.860527 -4.749789 -0.264817
v -28.588259 -4.749476 -1.703290
v -25.860527 -5.374789 -0.264817
v -25.860527 -5.374789 -0.264817
v -23.081579 -4.750114 1.445594
v -25.860527 -4.749789 -0.264817
v -23.081579 -5.375114 1.445594
v -19.722670 -13.626364 0.997737
v -20.847548 -13.001364 2.338314
v -19.722670 -13.001364 0.997737
v -20.847548 -13.626364 2.338314
v -21.063246 -13.626364 -0.127142
v -19.722670 -13.001364 0.997737
v -21.063246 -13.001364 -0.127142
v -19.722670 -13.626364 0.997737
v -20.847548 -13.626364 2.338314
v -21.063246 -13.626364 -0.127142
v -19.722670 -13.626364 0.997737
v -22.188126 -13.626364 1.213434
v -21.437489 -13.001364 1.680120
v -21.529932 -5.376364 0.623496
v -21.437489 -5.376364 1.680119
v -21.529932 -13.001364 0.623496
v -20.380865 -13.001364 1.587676
v -21.437489 -5.376364 1.680119
v -20.380865 -5.376364 1.587676
v -21.437489 -13.001364 1.680120
v -21.529932 -13.001364 0.623496
v -20.473307 -5.376364 0.531051
v -21.529932 -5.376364 0.623496
v -20.473307 -13.001364 0.531051
v -15.880640 -13.001363 9.145327
v -15.606119 -5.376364 8.120806
v -15.880640 -5.376364 9.145326
v -15.606119 -13.001363 8.120807
v -20.847548 -6.001364 2.338313
v -21.063246 -6.001364 -0.127143
v -19.722670 -6.001364 0.997737
v -22.188126 -6.001364 1.213433
v -19.722670 -6.001364 0.997737
v -20.847548 -5.376364 2.338313
v -19.722670 -5.376364 0.997737
v -20.847548 -6.001364 2.338313
v -20.847548 -6.001364 2.338313
v -22.188126 -5.376364 1.213433
v -20.847548 -5.376364 2.338313
v -22.188126 -6.001364 1.213433
v -22.188126 -6.001364 1.213433
v -21.063246 -5.376364 -0.127143
v -22.188126 -5.376364 1.213433
v -21.063246 -6.001364 -0.127143
v -21.063246 -6.001364 -0.127143
v -19.722670 -5.376364 0.997737
v -21.063246 -5.376364 -0.127143
v -19.722670 -6.001364 0.997737
v -28.530006 -13.001364 -2.479723
v -29.949535 -13.001364 -4.507021
v -28.226120 -13.001364 -4.203135
v -30.253422 -13.001364 -2.783608
v -28.530006 -13.626364 -2.479723
v -30.253422 -13.001364 -2.783608
v -28.530006 -13.001364 -2.479723
v -30.253422 -13.626364 -2.783608
v -30.253422 -13.626364 -2.783608
v -29.949535 -13.001364 -4.507021
v -30.253422 -13.001364 -2.783608
v -29.949535 -13.626364 -4.507021
v -28.226120 -13.626364 -4.203135
v -28.530006 -13.001364 -2.479723
v -28.226120 -13.001364 -4.203135
v -28.530006 -13.626364 -2.479723
v -29.949535 -13.626364 -4.507021
v -28.226120 -13.001364 -4.203135
v -29.949535 -13.001364 -4.507021
v -28.226120 -13.626364 -4.203135
v -23.081579 -5.375114 1.445594
v -20.835712 -4.750426 3.370511
v -23.081579 -4.750114 1.445594
v -20.835712 -5.375426 3.370511
v -20.835712 -5.375426 3.370511
v -18.342655 -4.750839 6.380984
v -20.835712 -4.750426 3.370511
v -18.342659 -5.375838 6.380984
v -13.227835 -5.376363 9.490116
v -15.934165 -4.751363 11.052618
v -13.227835 -4.751363 9.490116
v -15.934164 -5.376363 11.052617
v -28.530006 -13.626364 -2.479723
v -29.949535 -13.626364 -4.507021
v -28.226120 -13.626364 -4.203135
v -30.253422 -13.626364 -2.783608
v -29.370007 -13.001364 -2.754765
v -29.978374 -5.376365 -3.623607
v -29.370007 -5.376364 -2.754766
v -29.978374 -13.001364 -3.623606
v -29.978374 -13.001364 -3.623606
v -29.109531 -5.376365 -4.231980
v -29.978374 -5.376365 -3.623607
v -29.109531 -13.001364 -4.231980
v -20.473307 -13.001364 0.531051
v -20.380865 -5.376364 1.587676
v -20.473307 -5.376364 0.531051
v -20.380865 -13.001364 1.587676
v -29.109531 -13.001364 -4.231980
v -28.501163 -5.376365 -3.363137
v -29.109531 -5.376365 -4.231980
v -28.501163 -13.001364 -3.363137
v -28.501163 -13.001364 -3.363137
v -29.370007 -5.376364 -2.754766
v -28.501163 -5.376365 -3.363137
v -29.370007 -13.001364 -2.754765
v -27.315985 -4.749477 -4.468808
v -31.051693 -4.749177 -2.409937
v -30.759159 -4.749177 -5.333222
v -28.588259 -4.749476 -1.703290
v -13.227835 -4.751363 9.490116
v -16.972813 -4.751113 8.765530
v -14.261328 -4.751364 7.200054
v -15.934164 -4.751363 11.052617
vn -0.0000 -1.0000 -0.0000
vn -0.9848 -0.0000 -0.1736
vn 0.1736 -0.0000 -0.9848
vn 0.9848 -0.0000 0.1736
vn -0.0001 -1.0000 -0.0001
vn -0.9659 -0.0000 -0.2588
vn 0.2588 -0.0000 -0.9659
vn -0.2588 -0.0000 0.9659
vn -0.0001 -1.0000 -0.0000
vn -0.0000 -0.0000 -1.0000
vn 0.2435 -0.0000 -0.9699
vn -0.5000 -0.0000 -0.8660
vn 0.9115 -0.0000 -0.4113
vn 0.8660 -0.0000 -0.5000
vn 0.7765 -0.0000 -0.6302
vn 0.6582 -0.0000 -0.7528
vn 0.5269 -0.0000 -0.8500
vn 0.4635 -0.0000 -0.8861
vn 0.9950 -0.0000 0.0996
vn -0.0001 -1.0000 -0.0002
vn -0.0000 -1.0000 -0.0001
vn -0.8660 -0.0000 0.5000
vn -0.2757 -0.0000 0.9612
vn 0.5000 -0.0000 0.8660
vn -0.8671 -0.0000 0.4981
vn -0.1736 -0.0000 0.9848
vn -0.9105 -0.0000 0.4135
vn 0.6428 -0.0000 -0.7660
vn 0.7660 -0.0000 0.6428
vn -0.4665 -0.0000 0.8845
vn -0.5242 -0.0000 0.8516
vn -0.7660 -0.0000 -0.6428
vn -0.6428 -0.0000 0.7660
vn 0.9962 -0.0000 -0.0872
vn -0.0872 -0.0000 -0.9962
vn 0.0872 -0.0000 0.9962
vn 0.9659 -0.0000 0.2588
vn -0.6508 -0.0000 0.7593
vn -0.7702 -0.0000 0.6378
vn 0.8192 -0.0000 -0.5736
vn 0.5736 -0.0000 0.8192
vn -0.9962 -0.0000 0.0872
vn -0.8192 -0.0000 0.5736
vn -0.5736 -0.0000 -0.8192
vt 0.605469 0.808594
vt 0.660156 0.863281
vt 0.605469 0.863281
vt 0.660156 0.808594
vt 0.605469 0.933594
vt 0.660156 0.953125
vt 0.605469 0.953125
vt 0.660156 0.933594
vt 0.667969 0.410156
vt 0.765625 0.507812
vt 0.667969 0.507812
vt 0.765625 0.410156
vt 0.812500 0.507812
vt 0.910156 0.609375
vt 0.812500 0.609375
vt 0.910156 0.507812
vt 0.765625 0.609375
vt 0.667969 0.609375
vt 0.812500 0.281250
vt 0.910156 0.410156
vt 0.812500 0.410156
vt 0.910156 0.281250
vt 0.550781 0.562500
vt 0.574219 0.800781
vt 0.550781 0.800781
vt 0.574219 0.562500
vt 0.597656 0.800781
vt 0.597656 0.562500
vt 0.765625 0.707031
vt 0.667969 0.707031
vt 0.765625 0.800781
vt 0.667969 0.800781
vt 0.000000 0.996094
vt 0.003906 1.000000
vt 0.000000 1.000000
vt 0.003906 0.996094
vt 0.781250 0.707031
vt 0.800781 0.800781
vt 0.800781 0.707031
vt 0.781250 0.800781
vt 0.781250 0.117188
vt 0.800781 0.195312
vt 0.800781 0.117188
vt 0.781250 0.195312
vt 0.800781 0.281250
vt 0.781250 0.281250
vt 0.800781 0.410156
vt 0.781250 0.410156
vt 0.781250 0.433594
vt 0.800781 0.542969
vt 0.800781 0.433594
vt 0.781250 0.542969
vt 0.781250 0.507812
vt 0.800781 0.609375
vt 0.800781 0.507812
vt 0.781250 0.609375
vt 0.910156 0.085938
vt 0.812500 0.105469
vt 0.910156 0.105469
vt 0.812500 0.085938
vt 0.910156 0.707031
vt 0.812500 0.707031
vt 0.812500 0.195312
vt 0.910156 0.195312
vt 0.667969 0.117188
vt 0.765625 0.195312
vt 0.667969 0.195312
vt 0.765625 0.117188
vt 0.605469 0.871094
vt 0.660156 0.925781
vt 0.605469 0.925781
vt 0.660156 0.871094
vt 0.765625 0.281250
vt 0.667969 0.281250
vt 0.781250 0.363281
vt 0.800781 0.441406
vt 0.800781 0.363281
vt 0.781250 0.441406
vt 0.910156 0.800781
vt 0.812500 0.800781
vt 0.812500 0.117188
vt 0.910156 0.117188
s 0
usemtl 0.001
f 1/1/1 3/2/1 2/3/1
f 1/1/1 4/4/1 3/2/1
f 5/5/2 6/6/2 7/7/2
f 5/5/2 8/8/2 6/6/2
f 9/5/3 10/6/3 11/7/3
f 9/5/3 12/8/3 10/6/3
f 13/5/4 14/6/4 15/7/4
f 13/5/4 16/8/4 14/6/4
f 17/9/5 18/10/5 19/11/5
f 17/9/5 20/12/5 18/10/5
f 21/13/5 22/14/5 23/15/5
f 21/13/5 24/16/5 22/14/5
f 25/11/5 26/17/5 27/18/5
f 25/11/5 28/10/5 26/17/5
f 29/19/5 30/20/5 31/21/5
f 29/19/5 32/22/5 30/20/5
f 33/23/6 34/24/6 35/25/6
f 33/23/6 36/26/6 34/24/6
f 37/26/7 38/27/7 39/24/7
f 37/26/7 40/28/7 38/27/7
f 41/26/8 42/27/8 43/24/8
f 41/26/8 44/28/8 42/27/8
f 45/18/9 46/29/9 47/30/9
f 45/18/5 48/17/5 46/29/5
f 49/30/9 50/31/9 51/32/9
f 49/30/9 52/29/9 50/31/9
f 53/33/10 54/34/10 55/35/10
f 53/33/10 56/36/10 54/34/10
f 57/1/1 58/2/1 59/3/1
f 57/1/1 60/4/1 58/2/1
f 61/37/11 62/38/11 63/39/11
f 61/37/11 64/40/11 62/38/11
f 65/5/12 66/6/12 67/7/12
f 65/5/12 68/8/12 66/6/12
f 69/33/10 70/34/10 71/35/10
f 69/33/10 72/36/10 70/34/10
f 73/41/13 74/42/13 75/43/13
f 73/41/13 76/44/13 74/42/13
f 77/44/14 78/45/14 79/42/14
f 77/44/14 80/46/14 78/45/14
f 81/46/15 82/47/15 83/45/15
f 81/46/15 84/48/15 82/47/15
f 85/49/16 86/50/16 87/51/16
f 85/49/16 88/52/16 86/50/16
f 89/21/5 90/16/5 91/13/5
f 89/21/5 92/20/5 90/16/5
f 93/53/17 94/54/17 95/55/17
f 93/53/17 96/56/17 94/54/17
f 97/56/18 98/39/18 99/54/18
f 97/56/18 100/37/18 98/39/18
f 101/57/19 102/58/19 103/59/19
f 101/57/19 104/60/19 102/58/19
f 105/15/9 106/61/9 107/62/9
f 105/15/5 108/14/5 106/61/5
f 109/63/20 110/22/20 111/19/20
f 109/63/9 112/64/9 110/22/9
f 113/65/9 114/66/9 115/67/9
f 113/65/21 116/68/21 114/66/21
f 117/5/22 118/6/22 119/7/22
f 117/5/22 120/8/22 118/6/22
f 121/40/23 122/39/23 123/38/23
f 121/40/23 124/37/23 122/39/23
f 125/5/24 126/6/24 127/7/24
f 125/5/24 128/8/24 126/6/24
f 129/5/14 130/6/14 131/7/14
f 129/5/14 132/8/14 130/6/14
f 133/46/25 134/42/25 135/45/25
f 133/46/25 136/44/25 134/42/25
f 137/5/26 138/6/26 139/7/26
f 137/5/26 140/8/26 138/6/26
f 141/69/1 142/70/1 143/71/1
f 141/69/1 144/72/1 142/70/1
f 145/5/14 146/6/14 147/7/14
f 145/5/14 148/8/14 146/6/14
f 149/5/24 150/6/24 151/7/24
f 149/5/24 152/8/24 150/6/24
f 153/5/12 154/6/12 155/7/12
f 153/5/12 156/8/12 154/6/12
f 157/5/22 158/6/22 159/7/22
f 157/5/22 160/8/22 158/6/22
f 161/44/27 162/43/27 163/42/27
f 161/44/27 164/41/27 162/43/27
f 165/1/1 166/2/1 167/3/1
f 165/1/1 168/4/1 166/2/1
f 169/69/1 170/70/1 171/71/1
f 169/69/1 172/72/1 170/70/1
f 173/5/28 174/6/28 175/7/28
f 173/5/28 176/8/28 174/6/28
f 177/67/20 178/73/20 179/74/20
f 177/67/9 180/66/9 178/73/9
f 181/5/29 182/6/29 183/7/29
f 181/5/29 184/8/29 182/6/29
f 185/74/5 186/12/5 187/9/5
f 185/74/5 188/73/5 186/12/5
f 189/37/30 190/54/30 191/39/30
f 189/37/30 192/56/30 190/54/30
f 193/56/31 194/55/31 195/54/31
f 193/56/31 196/53/31 194/55/31
f 197/5/32 198/6/32 199/7/32
f 197/5/32 200/8/32 198/6/32
f 201/5/33 202/6/33 203/7/33
f 201/5/33 204/8/33 202/6/33
f 205/1/1 206/2/1 207/3/1
f 205/1/1 208/4/1 206/2/1
f 209/23/34 210/24/34 211/25/34
f 209/23/34 212/26/34 210/24/34
f 213/26/35 214/27/35 215/24/35
f 213/26/35 216/28/35 214/27/35
f 217/26/36 218/27/36 219/24/36
f 217/26/36 220/28/36 218/27/36
f 221/23/37 222/24/37 223/25/37
f 221/23/37 224/26/37 222/24/37
f 225/1/1 226/2/1 227/3/1
f 225/1/1 228/4/1 226/2/1
f 229/5/32 230/6/32 231/7/32
f 229/5/32 232/8/32 230/6/32
f 233/5/28 234/6/28 235/7/28
f 233/5/28 236/8/28 234/6/28
f 237/5/29 238/6/29 239/7/29
f 237/5/29 240/8/29 238/6/29
f 241/5/33 242/6/33 243/7/33
f 241/5/33 244/8/33 242/6/33
f 245/69/1 246/70/1 247/71/1
f 245/69/1 248/72/1 246/70/1
f 249/5/3 250/6/3 251/7/3
f 249/5/3 252/8/3 250/6/3
f 253/5/4 254/6/4 255/7/4
f 253/5/4 256/8/4 254/6/4
f 257/5/2 258/6/2 259/7/2
f 257/5/2 260/8/2 258/6/2
f 261/5/26 262/6/26 263/7/26
f 261/5/26 264/8/26 262/6/26
f 265/75/38 266/76/38 267/77/38
f 265/75/38 268/78/38 266/76/38
f 269/48/39 270/45/39 271/47/39
f 269/48/39 272/46/39 270/45/39
f 273/60/12 274/59/12 275/58/12
f 273/60/12 276/57/12 274/59/12
f 277/1/1 278/2/1 279/3/1
f 277/1/1 280/4/1 278/2/1
f 281/23/40 282/24/40 283/25/40
f 281/23/40 284/26/40 282/24/40
f 285/26/41 286/27/41 287/24/41
f 285/26/41 288/28/41 286/27/41
f 289/23/42 290/24/42 291/25/42
f 289/23/42 292/26/42 290/24/42
f 293/23/43 294/24/43 295/25/43
f 293/23/43 296/26/43 294/24/43
f 297/26/44 298/27/44 299/24/44
f 297/26/44 300/28/44 298/27/44
f 301/62/9 302/79/9 303/80/9
f 301/62/9 304/61/9 302/79/9
f 305/81/9 306/64/9 307/63/9
f 305/81/5 308/82/5 306/64/5
