o Default
v 0.0535714328289032 2.2685184478759766 -0.0535714291036129
v 1.524999976158142 2.592592477798462 -0.4749999940395355
v 0.4749999940395355 2.592592477798462 -0.4749999940395355
v 1.9464285373687744 2.2685184478759766 -0.0535714291036129
v 0.4749999940395355 2.592592477798462 -1.524999976158142
v 0.0535714291036129 2.2685184478759766 -1.9464285373687744
v 1.9464285373687744 2.2685184478759766 -1.9464285373687744
v 1.524999976158142 2.592592477798462 -1.524999976158142
v 2 2.025463104248047 -4.440892098500626e-16
v 2 2.025463104248047 -2
v 2 0.9722222089767456 -2
v 0 2.025463104248047 -2
v 0 0.9722222089767456 -2
v 5.394043909866741e-24 0.9722222089767456 1.6653345369377348e-16
v 5.394043909866741e-24 2.025463104248047 1.6653345369377348e-16
v 1.5555555820465088 0 -0.4444444477558136
v 1.9027777910232544 0.40509259700775146 -1.9027777910232544
v 1.9027777910232544 0.40509259700775146 -0.0972222089767456
v 1.5555555820465088 0 -1.5555555820465088
v 0.4444444477558136 0 -0.4444444477558136
v 0.0972222089767456 0.40509259700775146 -0.0972222238779068
v 2 0.9722222089767456 0
v 0.0972222089767456 0.40509259700775146 -1.9027777910232544
v 0.4444444179534912 0 -1.5555555820465088
v 0.9375 0.14351852238178253 -1
v 1.0625 0.45601850748062134 -1
v 0.9375 0.45601850748062134 -1
v 1.0625 0.14351852238178253 -1
v 1 0.14351852238178253 -1.0625
v 1 0.45601850748062134 -0.9375
v 1 0.45601850748062134 -1.0625
v 1 0.14351852238178253 -0.9375
vt 0 0.875
vt 0.6666666865348816 1
vt 0 1
vt 0 0.875
vt 0.6666666865348816 0.875
vt 0.6666666865348816 1
vt 0 0.875
vt 0.6666666865348816 1
vt 0 1
vt 0 0.875
vt 0.6666666865348816 0.875
vt 0.6666666865348816 1
vt 0 0.875
vt 0.6666666865348816 1
vt 0 1
vt 0 0.875
vt 0.6666666865348816 0.875
vt 0.6666666865348816 1
vt 0 0.78125
vt 0.6666666865348816 0.875
vt 0 0.875
vt 0 0.78125
vt 0.6666666865348816 0.78125
vt 0.6666666865348816 0.875
vt 0 0.375
vt 0.6666666865348816 0.78125
vt 0 0.78125
vt 0 0.375
vt 0.6666666865348816 0.375
vt 0.6666666865348816 0.78125
vt 0 0.375
vt 0.6666666865348816 0.78125
vt 0 0.78125
vt 0 0.375
vt 0.6666666865348816 0.375
vt 0.6666666865348816 0.78125
vt 0 0
vt 0.6666666865348816 0.15625
vt 0 0.15625
vt 0 0
vt 0.6666666865348816 0
vt 0.6666666865348816 0.15625
vt 0 0
vt 0.6666666865348816 0.15625
vt 0 0.15625
vt 0 0
vt 0.6666666865348816 0
vt 0.6666666865348816 0.15625
vt 0 0.78125
vt 0.6666666865348816 0.875
vt 0 0.875
vt 0 0.78125
vt 0.6666666865348816 0.78125
vt 0.6666666865348816 0.875
vt 0 0.875
vt 0.6666666865348816 1
vt 0 1
vt 0 0.875
vt 0.6666666865348816 0.875
vt 0.6666666865348816 1
vt 0 0.78125
vt 0.6666666865348816 0.875
vt 0 0.875
vt 0 0.78125
vt 0.6666666865348816 0.78125
vt 0.6666666865348816 0.875
vt 0 0.78125
vt 0.6666666865348816 0.875
vt 0 0.875
vt 0 0.78125
vt 0.6666666865348816 0.78125
vt 0.6666666865348816 0.875
vt 0 0.375
vt 0.6666666865348816 0.78125
vt 0 0.78125
vt 0 0.375
vt 0.6666666865348816 0.375
vt 0.6666666865348816 0.78125
vt 0 0.375
vt 0.6666666865348816 0.78125
vt 0 0.78125
vt 0 0.375
vt 0.6666666865348816 0.375
vt 0.6666666865348816 0.78125
vt 0 0
vt 0.6666666865348816 0.15625
vt 0 0.15625
vt 0 0
vt 0.6666666865348816 0
vt 0.6666666865348816 0.15625
vt 0 0.15625
vt 0.6666666865348816 0.375
vt 0 0.375
vt 0 0.15625
vt 0.6666666865348816 0.15625
vt 0.6666666865348816 0.375
vt 0 0.15625
vt 0.6666666865348816 0.375
vt 0 0.375
vt 0 0.15625
vt 0.6666666865348816 0.15625
vt 0.6666666865348816 0.375
vt 0 0.15625
vt 0.6666666865348816 0.375
vt 0 0.375
vt 0 0.15625
vt 0.6666666865348816 0.15625
vt 0.6666666865348816 0.375
vt 0 0
vt 0.6666666865348816 0.15625
vt 0 0.15625
vt 0 0
vt 0.6666666865348816 0
vt 0.6666666865348816 0.15625
vt 0 0.15625
vt 0.6666666865348816 0.375
vt 0 0.375
vt 0 0.15625
vt 0.6666666865348816 0.15625
vt 0.6666666865348816 0.375
vt 0.8125 0
vt 0.8541666865348816 0.15625
vt 0.8125 0.15625
vt 0.8125 0
vt 0.8541666865348816 0
vt 0.8541666865348816 0.15625
vt 0.8125 0
vt 0.8541666865348816 0.15625
vt 0.8125 0.15625
vt 0.8125 0
vt 0.8541666865348816 0
vt 0.8541666865348816 0.15625
vn 0 0.7927165109137956 0.6095904636103311
vn 0 0.7927165109137956 0.6095904636103311
vn 0 0.7927165109137956 0.6095904636103311
vn 0 0.7927165109137956 0.6095904636103311
vn 0 0.7927165109137956 0.6095904636103311
vn 0 0.7927165109137956 0.6095904636103311
vn 0.6095904669965116 -0.792716508309859 0
vn 0.6095904669965116 -0.792716508309859 0
vn 0.6095904669965116 -0.792716508309859 0
vn 0.6095904643642355 -0.7927165103340512 -1.199721538945062e-9
vn 0.6095904643642355 -0.7927165103340512 -1.199721538945062e-9
vn 0.6095904643642355 -0.7927165103340512 -1.199721538945062e-9
vn 0 0.792716508309859 -0.6095904669965116
vn 0 0.792716508309859 -0.6095904669965116
vn 0 0.792716508309859 -0.6095904669965116
vn 0 0.792716508309859 -0.6095904669965116
vn 0 0.792716508309859 -0.6095904669965116
vn 0 0.792716508309859 -0.6095904669965116
vn 0.9765606816336277 0.2152422706794932 0
vn 0.9765606816336277 0.2152422706794932 0
vn 0.9765606816336277 0.2152422706794932 0
vn 0.9765606816336277 0.2152422706794932 0
vn 0.9765606816336277 0.2152422706794932 0
vn 0.9765606816336277 0.2152422706794932 0
vn 0 0 -1
vn 0 0 -1
vn 0 0 -1
vn 0 0 -1
vn 0 0 -1
vn 0 0 -1
vn 1 0 -2.6970219549333707e-24
vn 1 0 -2.6970219549333707e-24
vn 1 0 -2.6970219549333707e-24
vn 1 0 -2.6970219549333707e-24
vn 1 0 -2.6970219549333707e-24
vn 1 0 -2.6970219549333707e-24
vn 0.7592566181369308 -0.650791355055728 0
vn 0.7592566181369308 -0.650791355055728 0
vn 0.7592566181369308 -0.650791355055728 0
vn 0.7592566181369308 -0.650791355055728 0
vn 0.7592566181369308 -0.650791355055728 0
vn 0.7592566181369308 -0.650791355055728 0
vn -6.266107297758059e-9 -0.6507913742521328 0.75925660168287
vn -6.266107297758059e-9 -0.6507913742521328 0.75925660168287
vn -6.266107297758059e-9 -0.6507913742521328 0.75925660168287
vn 0 -0.6507913872561482 0.759256590536571
vn 0 -0.6507913872561482 0.759256590536571
vn 0 -0.6507913872561482 0.759256590536571
vn 0 0.2152421422114296 0.9765607099490715
vn 0 0.2152421422114296 0.9765607099490715
vn 0 0.2152421422114296 0.9765607099490715
vn 2.9815505091068095e-16 0.21524214221142732 0.9765607099490721
vn 2.9815505091068095e-16 0.21524214221142732 0.9765607099490721
vn 2.9815505091068095e-16 0.21524214221142732 0.9765607099490721
vn 0.6095904669965116 0.792716508309859 0
vn 0.6095904669965116 0.792716508309859 0
vn 0.6095904669965116 0.792716508309859 0
vn 0.6095904669965116 0.792716508309859 0
vn 0.6095904669965116 0.792716508309859 0
vn 0.6095904669965116 0.792716508309859 0
vn 0 0.2152422706794932 -0.9765606816336277
vn 0 0.2152422706794932 -0.9765606816336277
vn 0 0.2152422706794932 -0.9765606816336277
vn 0 0.2152422706794932 -0.9765606816336277
vn 0 0.2152422706794932 -0.9765606816336277
vn 0 0.2152422706794932 -0.9765606816336277
vn 0.9765607067138697 -0.2152421568896465 -1.921947573694328e-9
vn 0.9765607067138697 -0.2152421568896465 -1.921947573694328e-9
vn 0.9765607067138697 -0.2152421568896465 -1.921947573694328e-9
vn 0.9765607099490716 -0.21524214221142896 -2.6338056750579655e-24
vn 0.9765607099490716 -0.21524214221142896 -2.6338056750579655e-24
vn 0.9765607099490716 -0.21524214221142896 -2.6338056750579655e-24
vn 3.0531133177191805e-16 0 1
vn 3.0531133177191805e-16 0 1
vn 3.0531133177191805e-16 0 1
vn 8.326672684688674e-17 4.2164068243445006e-16 1
vn 8.326672684688674e-17 4.2164068243445006e-16 1
vn 8.326672684688674e-17 4.2164068243445006e-16 1
vn 1 0 0
vn 1 0 0
vn 1 0 0
vn 1 0 0
vn 1 0 0
vn 1 0 0
vn 0 -0.650791355055728 -0.7592566181369308
vn 0 -0.650791355055728 -0.7592566181369308
vn 0 -0.650791355055728 -0.7592566181369308
vn 0 -0.6507913550557282 -0.7592566181369309
vn 0 -0.6507913550557282 -0.7592566181369309
vn 0 -0.6507913550557282 -0.7592566181369309
vn 0.9856222577705686 0.16896379785991655 -2.6582448684782212e-24
vn 0.9856222577705686 0.16896379785991655 -2.6582448684782212e-24
vn 0.9856222577705686 0.16896379785991655 -2.6582448684782212e-24
vn 0.9856222577705684 0.16896379785991655 0
vn 0.9856222577705684 0.16896379785991655 0
vn 0.9856222577705684 0.16896379785991655 0
vn 0.9856222577705686 -0.16896379785991655 0
vn 0.9856222577705686 -0.16896379785991655 0
vn 0.9856222577705686 -0.16896379785991655 0
vn 0.9856222577705684 -0.16896379785991655 0
vn 0.9856222577705684 -0.16896379785991655 0
vn 0.9856222577705684 -0.16896379785991655 0
vn 0 -0.16896379785991655 -0.9856222577705686
vn 0 -0.16896379785991655 -0.9856222577705686
vn 0 -0.16896379785991655 -0.9856222577705686
vn 0 -0.16896379785991655 -0.9856222577705684
vn 0 -0.16896379785991655 -0.9856222577705684
vn 0 -0.16896379785991655 -0.9856222577705684
vn 0.759256590536571 0.6507913872561482 0
vn 0.759256590536571 0.6507913872561482 0
vn 0.759256590536571 0.6507913872561482 0
vn 0.7592566267620429 0.6507913449930967 -2.0364849264336946e-8
vn 0.7592566267620429 0.6507913449930967 -2.0364849264336946e-8
vn 0.7592566267620429 0.6507913449930967 -2.0364849264336946e-8
vn 8.206953895288662e-17 -0.16896382301752175 0.9856222534578364
vn 8.206953895288662e-17 -0.16896382301752175 0.9856222534578364
vn 8.206953895288662e-17 -0.16896382301752175 0.9856222534578364
vn -8.134291898173976e-9 -0.1689637965052765 0.9856222580027926
vn -8.134291898173976e-9 -0.1689637965052765 0.9856222580027926
vn -8.134291898173976e-9 -0.1689637965052765 0.9856222580027926
vn 0 0 1
vn 0 0 1
vn 0 0 1
vn 0 0 1
vn 0 0 1
vn 0 0 1
vn -1 0 0
vn -1 0 0
vn -1 0 0
vn -1 0 0
vn -1 0 0
vn -1 0 0
g Scene
usemtl 0
f 1/1/1 2/2/2 3/3/3
f 1/4/4 4/5/5 2/6/6
f 1/7/7 5/8/8 3/9/9
f 1/10/10 6/11/11 5/12/12
f 7/13/13 5/14/14 8/15/15
f 7/16/16 6/17/17 5/18/18
f 9/19/19 7/20/20 4/21/21
f 9/22/22 10/23/23 7/24/24
f 11/25/25 12/26/26 10/27/27
f 11/28/28 13/29/29 12/30/30
f 14/31/31 12/32/32 15/33/33
f 14/34/34 13/35/35 12/36/36
f 16/37/37 17/38/38 18/39/39
f 16/40/40 19/41/41 17/42/42
f 20/43/43 18/44/44 21/45/45
f 20/46/46 16/47/47 18/48/48
f 15/49/49 4/50/50 1/51/51
f 15/52/52 9/53/53 4/54/54
f 4/55/55 8/56/56 2/57/57
f 4/58/58 7/59/59 8/60/60
f 10/61/61 6/62/62 7/63/63
f 10/64/64 12/65/65 6/66/66
f 15/67/67 6/68/68 1/69/69
f 15/70/70 12/71/71 6/72/72
f 14/73/73 9/74/74 15/75/75
f 14/76/76 22/77/77 9/78/78
f 22/79/79 10/80/80 9/81/81
f 22/82/82 11/83/83 10/84/84
f 19/85/85 23/86/86 17/87/87
f 19/88/88 24/89/89 23/90/90
f 21/91/91 13/92/92 14/93/93
f 21/94/94 23/95/95 13/96/96
f 18/97/97 11/98/98 22/99/99
f 18/100/100 17/101/101 11/102/102
f 17/103/103 13/104/104 11/105/105
f 17/106/106 23/107/107 13/108/108
f 20/109/109 23/110/110 21/111/111
f 20/112/112 24/113/113 23/114/114
f 21/115/115 22/116/116 14/117/117
f 21/118/118 18/119/119 22/120/120
f 25/121/121 26/122/122 27/123/123
f 25/124/124 28/125/125 26/126/126
f 29/127/127 30/128/128 31/129/129
f 29/130/130 32/131/131 30/132/132
