o Default
v -1.125 0 0.8888888955116272
v 0.75 6.5 0.375
v -0.75 6.5 0.375
v 1.125 0 0.8888888955116272
v -1.125 0 -0.8888888359069824
v -0.75 6.5 -0.375
v 0.75 6.5 -0.375
v 1.125 0 -0.8888888955116272
vt 0.125 0.03125
vt 0.3125 0.84375
vt 0.125 0.84375
vt 0.125 0.03125
vt 0.3125 0.03125
vt 0.3125 0.84375
vt 0.03125 0.03125
vt 0.125 0.84375
vt 0.03125 0.84375
vt 0.03125 0.03125
vt 0.125 0.03125
vt 0.125 0.84375
vt 0.3125 0.03125
vt 0.40625 0.84375
vt 0.3125 0.84375
vt 0.3125 0.03125
vt 0.40625 0.03125
vt 0.40625 0.84375
vt 0.40625 0.03125
vt 0.59375 0.84375
vt 0.40625 0.84375
vt 0.40625 0.03125
vt 0.59375 0.03125
vt 0.59375 0.84375
vt 0.125 0.875
vt 0.3125 0.96875
vt 0.125 0.96875
vt 0.125 0.875
vt 0.3125 0.875
vt 0.3125 0.96875
vn 0 0.07881390232708595 0.9968893463168199
vn 0 0.07881390232708595 0.9968893463168199
vn 0 0.07881390232708595 0.9968893463168199
vn 0 0.07881390232708593 0.9968893463168199
vn 0 0.07881390232708593 0.9968893463168199
vn 0 0.07881390232708593 0.9968893463168199
vn -0.9983399416756089 0.057596535096669746 0
vn -0.9983399416756089 0.057596535096669746 0
vn -0.9983399416756089 0.057596535096669746 0
vn -0.998339941675609 0.05759653509666975 0
vn -0.998339941675609 0.05759653509666975 0
vn -0.998339941675609 0.05759653509666975 0
vn 0.9983399416756089 0.057596535096669746 0
vn 0.9983399416756089 0.057596535096669746 0
vn 0.9983399416756089 0.057596535096669746 0
vn 0.998339941675609 0.05759653509666975 0
vn 0.998339941675609 0.05759653509666975 0
vn 0.998339941675609 0.05759653509666975 0
vn 0 0.07881390232708595 -0.9968893463168199
vn 0 0.07881390232708595 -0.9968893463168199
vn 0 0.07881390232708595 -0.9968893463168199
vn -2.6408549068115673e-8 0.0788138947565545 -0.9968893469153445
vn -2.6408549068115673e-8 0.0788138947565545 -0.9968893469153445
vn -2.6408549068115673e-8 0.0788138947565545 -0.9968893469153445
vn 0 1 0
vn 0 1 0
vn 0 1 0
vn 0 1 0
vn 0 1 0
vn 0 1 0
g Scene
usemtl 0
f 1/1/1 2/2/2 3/3/3
f 1/4/4 4/5/5 2/6/6
f 5/7/7 3/8/8 6/9/9
f 5/10/10 1/11/11 3/12/12
f 4/13/13 7/14/14 2/15/15
f 4/16/16 8/17/17 7/18/18
f 8/19/19 6/20/20 7/21/21
f 8/22/22 5/23/23 6/24/24
f 7/25/25 3/26/26 2/27/27
f 7/28/28 6/29/29 3/30/30
