o Default
v 0 0.6248400807380676 -0.00007500375068048015
v 1.125 0.3749276399612427 -0.6250749826431274
v 0 0.6249275803565979 -0.8750749826431274
v 0.875 0.3748401403427124 -0.00007500375068048015
v -0.875 0.6248400807380676 -0.00007500375068048015
v -0.75 0.6249275803565979 -0.5000749826431274
v 0 0.37475264072418213 0.8749250173568726
v 0.75 0.37475264072418213 0.49992498755455017
v -0.5 0.37475264072418213 0.6249250173568726
v -0.875 -0.00024736454361118376 0.7499250173568726
v 0.125 -0.00024736454361118376 1.4999250173568726
v -1.25 -0.00024736454361118376 -0.00007500375068048015
v 0 -0.00024736454361118376 -1.2500749826431274
v -1 -0.00024736454361118376 -0.6250749826431274
v 1.5 -0.00024736454361118376 -0.8750749826431274
v 1.375 -0.00024736454361118376 -0.00007500375068048015
v 1.25 -0.00024736454361118376 0.8749250173568726
vt 0.25 0.5
vt 0.46875 0.9375
vt 0.25 0.9375
vt 0.25 0.5
vt 0.46875 0.5
vt 0.46875 0.9375
vt 0.03125 0.5
vt 0.25 0.9375
vt 0.03125 0.9375
vt 0.03125 0.5
vt 0.25 0.5
vt 0.25 0.9375
vt 0.25 0.0625
vt 0.46875 0.5
vt 0.25 0.5
vt 0.25 0.0625
vt 0.46875 0.0625
vt 0.46875 0.5
vt 0.03125 0.0625
vt 0.25 0.5
vt 0.03125 0.5
vt 0.03125 0.0625
vt 0.25 0.0625
vt 0.25 0.5
vt 0.53125 0.0625
vt 0.96875 0.3125
vt 0.53125 0.3125
vt 0.53125 0.0625
vt 0.96875 0.0625
vt 0.96875 0.3125
vt 0.53125 0.3125
vt 0.625 0.9375
vt 0.53125 0.9375
vt 0.53125 0.3125
vt 0.625 0.3125
vt 0.625 0.9375
vt 0.625 0.3125
vt 0.6875 0.9375
vt 0.625 0.9375
vt 0.625 0.3125
vt 0.6875 0.3125
vt 0.6875 0.9375
vt 0.625 0.3125
vt 0.6875 0.9375
vt 0.625 0.9375
vt 0.625 0.3125
vt 0.6875 0.3125
vt 0.6875 0.9375
vt 0.625 0.3125
vt 0.6875 0.9375
vt 0.625 0.9375
vt 0.625 0.3125
vt 0.6875 0.3125
vt 0.6875 0.9375
vt 0.625 0.3125
vt 0.6875 0.9375
vt 0.625 0.9375
vt 0.625 0.3125
vt 0.6875 0.3125
vt 0.6875 0.9375
vt 0.625 0.3125
vt 0.6875 0.9375
vt 0.625 0.9375
vt 0.625 0.3125
vt 0.6875 0.3125
vt 0.6875 0.9375
vt 0.625 0.3125
vt 0.6875 0.9375
vt 0.625 0.9375
vt 0.625 0.3125
vt 0.6875 0.3125
vt 0.6875 0.9375
vn 0.2169097352452303 0.9761916600885429 0.00009761874277791387
vn 0.2169097352452303 0.9761916600885429 0.00009761874277791387
vn 0.2169097352452303 0.9761916600885429 0.00009761874277791387
vn 0.2730732536300853 0.9557566155754328 0.1093631104882874
vn 0.2730732536300853 0.9557566155754328 0.1093631104882874
vn 0.2730732536300853 0.9557566155754328 0.1093631104882874
vn 0.00009999956635919338 0.9999999750002164 0.00019999913271838676
vn 0.00009999956635919338 0.9999999750002164 0.00019999913271838676
vn 0.00009999956635919338 0.9999999750002164 0.00019999913271838676
vn 0 0.9999999950000433 0.00009999956594688602
vn 0 0.9999999950000433 0.00009999956594688602
vn 0 0.9999999950000433 0.00009999956594688602
vn 0.26489991022471376 0.9271499068362615 0.26499261841879695
vn 0.26489991022471376 0.9271499068362615 0.26499261841879695
vn 0.26489991022471376 0.9271499068362615 0.26499261841879695
vn 0.00009999957260457095 0.9999999750002165 0.00019999912931463918
vn 0.00009999957260457095 0.9999999750002165 0.00019999912931463918
vn 0.00009999957260457095 0.9999999750002165 0.00019999912931463918
vn 0 0.9284318983376625 0.37150263814557816
vn 0 0.9284318983376625 0.37150263814557816
vn 0 0.9284318983376625 0.37150263814557816
vn -0.13612594765899425 0.9525484931853619 0.2722518953179885
vn -0.13612594765899425 0.9525484931853619 0.2722518953179885
vn -0.13612594765899425 0.9525484931853619 0.2722518953179885
vn -0.35856858459923735 0.5976142992704393 0.7171371691984747
vn -0.35856858459923735 0.5976142992704393 0.7171371691984747
vn -0.35856858459923735 0.5976142992704393 0.7171371691984747
vn -0.3969729853875091 0.7498378507542083 0.5292973138500121
vn -0.3969729853875091 0.7498378507542083 0.5292973138500121
vn -0.3969729853875091 0.7498378507542083 0.5292973138500121
vn -0.695790647093244 0.41741598656231094 0.5844991613165732
vn -0.695790647093244 0.41741598656231094 0.5844991613165732
vn -0.695790647093244 0.41741598656231094 0.5844991613165732
vn -0.6188527552514226 0.7219948680817032 0.30942636891739994
vn -0.6188527552514226 0.7219948680817032 0.30942636891739994
vn -0.6188527552514226 0.7219948680817032 0.30942636891739994
vn -0.39407985859617595 0.47276349821458286 -0.7881597171923519
vn -0.39407985859617595 0.47276349821458286 -0.7881597171923519
vn -0.39407985859617595 0.47276349821458286 -0.7881597171923519
vn -0.49518848467660065 0.3564359383276938 -0.7923015754825611
vn -0.49518848467660065 0.3564359383276938 -0.7923015754825611
vn -0.49518848467660065 0.3564359383276938 -0.7923015754825611
vn -0.8891670825162509 0.39999922457762704 -0.22222178045105287
vn -0.8891670825162509 0.39999922457762704 -0.22222178045105287
vn -0.8891670825162509 0.39999922457762704 -0.22222178045105287
vn -0.8111339762512445 0.48661230263095157 -0.32445360145797236
vn -0.8111339762512445 0.48661230263095157 -0.32445360145797236
vn -0.8111339762512445 0.48661230263095157 -0.32445360145797236
vn 0.29921349910520406 0.7179114459384599 -0.6285494711983852
vn 0.29921349910520406 0.7179114459384599 -0.6285494711983852
vn 0.29921349910520406 0.7179114459384599 -0.6285494711983852
vn 0.20962574801484257 0.5029610104935583 -0.8385029920593703
vn 0.20962574801484257 0.5029610104935583 -0.8385029920593703
vn 0.20962574801484257 0.5029610104935583 -0.8385029920593703
vn 0.5834999199098175 0.7778183921198024 0.23350886995016246
vn 0.5834999199098175 0.7778183921198024 0.23350886995016246
vn 0.5834999199098175 0.7778183921198024 0.23350886995016246
vn 0.7375628616530365 0.6670074997170922 0.10536612563502933
vn 0.7375628616530365 0.6670074997170922 0.10536612563502933
vn 0.7375628616530365 0.6670074997170922 0.10536612563502933
vn 0.5292219738421757 0.8380814565890035 0.13245215937932356
vn 0.5292219738421757 0.8380814565890035 0.13245215937932356
vn 0.5292219738421757 0.8380814565890035 0.13245215937932356
vn 0.5978966047301518 0.7970094937064808 0.08541379861530593
vn 0.5978966047301518 0.7970094937064808 0.08541379861530593
vn 0.5978966047301518 0.7970094937064808 0.08541379861530593
vn 0.23284517637146387 0.8537655730192374 0.4656903157331866
vn 0.23284517637146387 0.8537655730192374 0.4656903157331866
vn 0.23284517637146387 0.8537655730192374 0.4656903157331866
vn 0.2667114457213006 0.8356958896740584 0.4800806022983411
vn 0.2667114457213006 0.8356958896740584 0.4800806022983411
vn 0.2667114457213006 0.8356958896740584 0.4800806022983411
g Scene
usemtl 0
f 1/1/1 2/2/2 3/3/3
f 1/4/4 4/5/5 2/6/6
f 5/7/7 3/8/8 6/9/9
f 5/10/10 1/11/11 3/12/12
f 7/13/13 4/14/14 1/15/15
f 7/16/16 8/17/17 4/18/18
f 9/19/19 1/20/20 5/21/21
f 9/22/22 7/23/23 1/24/24
f 10/25/25 7/26/26 9/27/27
f 10/28/28 11/29/29 7/30/30
f 12/31/31 9/32/32 5/33/33
f 12/34/34 10/35/35 9/36/36
f 13/37/37 6/38/38 3/39/39
f 13/40/40 14/41/41 6/42/42
f 14/43/43 5/44/44 6/45/45
f 14/46/46 12/47/47 5/48/48
f 15/49/49 3/50/50 2/51/51
f 15/52/52 13/53/53 3/54/54
f 16/55/55 2/56/56 4/57/57
f 16/58/58 15/59/59 2/60/60
f 17/61/61 4/62/62 8/63/63
f 17/64/64 16/65/65 4/66/66
f 11/67/67 8/68/68 7/69/69
f 11/70/70 17/71/71 8/72/72
