o Default
v 0.5457520484924316 1.2042518854141235 -0.39790084958076477
v -0.20424795150756836 1.0028942823410034 -0.31242135167121887
v 0.5457520484924316 1.2016440629959106 0.43083271384239197
v -0.20424795150756836 1.0028942823410034 0.34757861495018005
v 0.5457520484924316 0.6200703382492065 1.0204192399978638
v -0.20424795150756836 0.5355490446090698 0.8149236440658569
v 0.5457520484924316 -0.20460614562034607 1.011673092842102
v -0.20424795150756836 -0.12210569530725479 0.8122509717941284
v 0.5457520484924316 -0.7861796617507935 0.4237578809261322
v -0.20424795150756836 -0.5873647928237915 0.34191879630088806
v 0.5457520484924316 0.6200703382492065 -0.9820805788040161
v -0.20424795150756836 0.5376354455947876 -0.7827519178390503
v 0.5457520484924316 -0.20199808478355408 -0.9854212999343872
v -0.20424795150756836 -0.12001953274011612 -0.785424530506134
v 0.5457520484924316 -0.7861796617507935 -0.4012416899204254
v -0.20424795150756836 -0.5873647928237915 -0.3180808126926422
v -0.32924795150756836 0.6278942823410034 0.5725785493850708
v -0.32924795150756836 0.6278942823410034 0.19757863879203796
v -0.32924795150756836 -0.2721056640148163 0.5725785493850708
v -0.32924795150756836 -0.2721056640148163 0.19757863879203796
v -0.32924795150756836 1.0028942823410034 0.19757863879203796
v -0.32924795150756836 1.0028942823410034 -0.17742136120796204
v -0.32924795150756836 -0.6471056938171387 0.19757863879203796
v -0.32924795150756836 -0.6471056938171387 -0.17742136120796204
v -0.32924795150756836 0.6278942823410034 -0.17742136120796204
v -0.32924795150756836 0.6278942823410034 -0.5524213314056396
v -0.32924795150756836 -0.2721056640148163 -0.17742136120796204
v -0.32924795150756836 -0.2721056640148163 -0.5524213314056396
v -0.07924795895814896 0.2528943121433258 0.08507857471704483
v -0.32924795150756836 0.2528943121433258 0.08507857471704483
v -0.07924795895814896 0.10289432853460312 0.08507857471704483
v -0.32924795150756836 0.10289432853460312 0.08507857471704483
v -0.07924795895814896 0.10289432853460312 -0.06492122262716293
v -0.32924795150756836 0.10289432853460312 -0.06492122262716293
v -0.32924795150756836 0.2528943121433258 -0.06492140144109726
v -0.07924795895814896 0.2528943121433258 -0.06492140144109726
v 0.17863285541534424 -1.5586156845092773 0.14901553094387054
v -0.01581132784485817 -0.5863940715789795 -0.17910899221897125
v -0.01581132784485817 -1.5586156845092773 -0.17910899221897125
v 0.2119666337966919 -0.5863940715789795 0.14901553094387054
v 0.37307751178741455 -1.5586156845092773 -0.17910899221897125
v 0.37307751178741455 -0.5863940715789795 -0.17910899221897125
vt 0.75 0.6171875
vt 0.8046875 0.6171875
vt 0.75 0.703125
vt 0.8046875 0.6171875
vt 0.8046875 0.703125
vt 0.75 0.703125
vt 0.75 0.6171875
vt 0.8046875 0.6171875
vt 0.75 0.703125
vt 0.8046875 0.6171875
vt 0.8046875 0.703125
vt 0.75 0.703125
vt 0.75 0.6171875
vt 0.8046875 0.6171875
vt 0.75 0.703125
vt 0.8046875 0.6171875
vt 0.8046875 0.703125
vt 0.75 0.703125
vt 0.75 0.6171875
vt 0.8046875 0.6171875
vt 0.75 0.703125
vt 0.8046875 0.6171875
vt 0.8046875 0.703125
vt 0.75 0.703125
vt 0.75 0.6171875
vt 0.8046875 0.6171875
vt 0.75 0.703125
vt 0.8046875 0.6171875
vt 0.8046875 0.703125
vt 0.75 0.703125
vt 0.75 0.6171875
vt 0.8046875 0.6171875
vt 0.75 0.703125
vt 0.8046875 0.6171875
vt 0.8046875 0.703125
vt 0.75 0.703125
vt 0.75 0.6171875
vt 0.8046875 0.6171875
vt 0.75 0.703125
vt 0.8046875 0.6171875
vt 0.8046875 0.703125
vt 0.75 0.703125
vt 0.75 0.6171875
vt 0.8046875 0.6171875
vt 0.75 0.703125
vt 0.8046875 0.6171875
vt 0.8046875 0.703125
vt 0.75 0.703125
vt 0.75 0.703125
vt 0.8046875 0.703125
vt 0.75 0.890625
vt 0.8046875 0.703125
vt 0.8046875 0.890625
vt 0.75 0.890625
vt 0.8046875 0.703125
vt 0.8828125 0.703125
vt 0.8046875 0.890625
vt 0.8828125 0.703125
vt 0.8828125 0.890625
vt 0.8046875 0.890625
vt 0.8828125 0.703125
vt 0.9375 0.703125
vt 0.8828125 0.890625
vt 0.9375 0.703125
vt 0.9375 0.890625
vt 0.8828125 0.890625
vt 0.75 0.703125
vt 0.8046875 0.703125
vt 0.75 0.890625
vt 0.8046875 0.703125
vt 0.8046875 0.890625
vt 0.75 0.890625
vt 0.8046875 0.703125
vt 0.8828125 0.703125
vt 0.8046875 0.890625
vt 0.8828125 0.703125
vt 0.8828125 0.890625
vt 0.8046875 0.890625
vt 0.8828125 0.703125
vt 0.9375 0.703125
vt 0.8828125 0.890625
vt 0.9375 0.703125
vt 0.9375 0.890625
vt 0.8828125 0.890625
vt 0.6328125 0.7265625
vt 0.671875 0.7265625
vt 0.6328125 0.6328125
vt 0.671875 0.7265625
vt 0.671875 0.6328125
vt 0.6328125 0.6328125
vt 0.671875 0.765625
vt 0.7109375 0.765625
vt 0.671875 0.59375
vt 0.7109375 0.765625
vt 0.7109375 0.59375
vt 0.671875 0.59375
vt 0.7109375 0.7265625
vt 0.7109375 0.765625
vt 0.75 0.7265625
vt 0.7109375 0.6328125
vt 0.75 0.6328125
vt 0.7109375 0.59375
vt 0.671875 0.765625
vt 0.671875 0.7265625
vt 0.6328125 0.7265625
vt 0.671875 0.6328125
vt 0.671875 0.59375
vt 0.6328125 0.6328125
vt 0.7109375 0.7265625
vt 0.75 0.7265625
vt 0.7109375 0.6328125
vt 0.75 0.7265625
vt 0.75 0.6328125
vt 0.7109375 0.6328125
vt 0.7265625 0.78125
vt 0.7421875 0.78125
vt 0.7265625 0.765625
vt 0.7421875 0.78125
vt 0.7421875 0.765625
vt 0.7265625 0.765625
vt 0.7265625 0.78125
vt 0.7421875 0.78125
vt 0.7265625 0.765625
vt 0.7421875 0.78125
vt 0.7421875 0.765625
vt 0.7265625 0.765625
vt 0.7265625 0.78125
vt 0.7421875 0.78125
vt 0.7265625 0.765625
vt 0.7421875 0.78125
vt 0.7421875 0.765625
vt 0.7265625 0.765625
vt 0.7265625 0.78125
vt 0.7421875 0.78125
vt 0.7265625 0.765625
vt 0.7421875 0.78125
vt 0.7421875 0.765625
vt 0.7265625 0.765625
vt 0.5546875 0.6328125
vt 0.5859375 0.7109375
vt 0.5859375 0.6328125
vt 0.5546875 0.6328125
vt 0.5546875 0.7109375
vt 0.5859375 0.7109375
vt 0.5859375 0.7109375
vt 0.5546875 0.6328125
vt 0.5546875 0.7109375
vt 0.5859375 0.7109375
vt 0.5859375 0.6328125
vt 0.5546875 0.6328125
vt 0.5859375 0.6328125
vt 0.5546875 0.7109375
vt 0.5859375 0.7109375
vt 0.5859375 0.6328125
vt 0.5546875 0.6328125
vt 0.5546875 0.7109375
vt 0.5546875 0.6328125
vt 0.5859375 0.6015625
vt 0.5859375 0.6328125
vt 0.5546875 0.6328125
vt 0.5546875 0.6015625
vt 0.5859375 0.6015625
vn -0.25897011633432915 0.9658805521134061 0.003039390545150451
vn -0.25897011633432915 0.9658805521134061 0.003039390545150451
vn -0.25897011633432915 0.9658805521134061 0.003039390545150451
vn -0.25615797433562193 0.9666349322180897 0
vn -0.25615797433562193 0.9666349322180897 0
vn -0.25615797433562193 0.9666349322180897 0
vn -0.2576156535541606 0.6878986064179345 0.6785496903927718
vn -0.2576156535541606 0.6878986064179345 0.6785496903927718
vn -0.2576156535541606 0.6878986064179345 0.6785496903927718
vn -0.2637487792080956 0.682068972367352 0.6820692768333609
vn -0.2637487792080956 0.682068972367352 0.6820692768333609
vn -0.2637487792080956 0.682068972367352 0.6820692768333609
vn -0.26316797993509583 -0.010231128659428695 0.9646957750209313
vn -0.26316797993509583 -0.010231128659428695 0.9646957750209313
vn -0.26316797993509583 -0.010231128659428695 0.9646957750209313
vn -0.2573688338102577 -0.003927010825919542 0.9663052633454507
vn -0.2573688338102577 -0.003927010825919542 0.9663052633454507
vn -0.2573688338102577 -0.003927010825919542 0.9663052633454507
vn -0.2563365984684016 -0.6871767861772254 0.6797643803736624
vn -0.2563365984684016 -0.6871767861772254 0.6797643803736624
vn -0.2563365984684016 -0.6871767861772254 0.6797643803736624
vn -0.25633633043714993 -0.6871766331145956 0.6797646361788063
vn -0.25633633043714993 -0.6871766331145956 0.6797646361788063
vn -0.25633633043714993 -0.6871766331145956 0.6797646361788063
vn -0.2567446373269266 0.6834029866724409 -0.6834051133925267
vn -0.2567446373269266 0.6834029866724409 -0.6834051133925267
vn -0.2567446373269266 0.6834029866724409 -0.6834051133925267
vn -0.2615841067715872 0.6861754077312678 -0.6787761522839024
vn -0.2615841067715872 0.6861754077312678 -0.6787761522839024
vn -0.2615841067715872 0.6861754077312678 -0.6787761522839024
vn -0.25725601341768956 0.003926992794057409 -0.9663353053097216
vn -0.25725601341768956 0.003926992794057409 -0.9663353053097216
vn -0.25725601341768956 0.003926992794057409 -0.9663353053097216
vn -0.25725606046848143 0.003927043858359807 -0.9663352925764286
vn -0.25725606046848143 0.003927043858359807 -0.9663352925764286
vn -0.25725606046848143 0.003927043858359807 -0.9663352925764286
vn -0.25692490910454296 -0.6833690241411075 -0.6833713250686283
vn -0.25692490910454296 -0.6833690241411075 -0.6833713250686283
vn -0.25692490910454296 -0.6833690241411075 -0.6833713250686283
vn -0.2569248791117339 -0.6833690526578701 -0.6833713078282598
vn -0.2569248791117339 -0.6833690526578701 -0.6833713078282598
vn -0.2569248791117339 -0.6833690526578701 -0.6833713078282598
vn -0.2562363560820722 -0.9666141576770854 0
vn -0.2562363560820722 -0.9666141576770854 0
vn -0.2562363560820722 -0.9666141576770854 0
vn -0.25623635608207224 -0.9666141576770856 0
vn -0.25623635608207224 -0.9666141576770856 0
vn -0.25623635608207224 -0.9666141576770856 0
vn 0.9999999999999999 0 0
vn 0.9999999999999999 0 0
vn 0.9999999999999999 0 0
vn 1 0 0
vn 1 0 0
vn 1 0 0
vn 1 0 0
vn 1 0 0
vn 1 0 0
vn 1 0 0
vn 1 0 0
vn 1 0 0
vn 1 0 0
vn 1 0 0
vn 1 0 0
vn 0.9999999999999999 0 0
vn 0.9999999999999999 0 0
vn 0.9999999999999999 0 0
vn -0.9999999999999999 0 0
vn -0.9999999999999999 0 0
vn -0.9999999999999999 0 0
vn -0.9999999999999999 0 0
vn -0.9999999999999999 0 0
vn -0.9999999999999999 0 0
vn -1 0 0
vn -1 0 0
vn -1 0 0
vn -1 0 0
vn -1 0 0
vn -1 0 0
vn -1 0 0
vn -1 0 0
vn -1 0 0
vn -1 0 0
vn -1 0 0
vn -1 0 0
vn -1 0 0
vn -1 0 0
vn -1 0 0
vn -1 0 0
vn -1 0 0
vn -1 0 0
vn -1 0 0
vn -1 0 0
vn -1 0 0
vn -1 0 0
vn -1 0 0
vn -1 0 0
vn -1 0 0
vn -1 0 0
vn -1 0 0
vn -1 0 0
vn -1 0 0
vn -1 0 0
vn -1 0 0
vn -1 0 0
vn -1 0 0
vn -1 0 0
vn -1 0 0
vn -1 0 0
vn -1 0 0
vn -1 0 0
vn -1 0 0
vn -1 0 0
vn -1 0 0
vn -1 0 0
vn 0 0 1
vn 0 0 1
vn 0 0 1
vn 0 0 1
vn 0 0 1
vn 0 0 1
vn 0 -1 0
vn 0 -1 0
vn 0 -1 0
vn 0 -1 0
vn 0 -1 0
vn 0 -1 0
vn 0 -0.000001192093025773148 -0.9999999999992895
vn 0 -0.000001192093025773148 -0.9999999999992895
vn 0 -0.000001192093025773148 -0.9999999999992895
vn 0 -0.000001192093025773148 -0.9999999999992895
vn 0 -0.000001192093025773148 -0.9999999999992895
vn 0 -0.000001192093025773148 -0.9999999999992895
vn 0 1 0
vn 0 1 0
vn 0 1 0
vn 0 1 0
vn 0 1 0
vn 0 1 0
vn -0.8602915090428149 0 0.5098024317996496
vn -0.8602915090428149 0 0.5098024317996496
vn -0.8602915090428149 0 0.5098024317996496
vn -0.8211455326374183 0.028153954653682204 0.5700240074479052
vn -0.8211455326374183 0.028153954653682204 0.5700240074479052
vn -0.8211455326374183 0.028153954653682204 0.5700240074479052
vn 0.8976334476490843 0 0.44074277493978103
vn 0.8976334476490843 0 0.44074277493978103
vn 0.8976334476490843 0 0.44074277493978103
vn 0.8599169738352446 -0.029483279790281952 0.5095817248713334
vn 0.8599169738352446 -0.029483279790281952 0.5095817248713334
vn 0.8599169738352446 -0.029483279790281952 0.5095817248713334
vn 0 0 -0.9999999999999999
vn 0 0 -0.9999999999999999
vn 0 0 -0.9999999999999999
vn 0 0 -0.9999999999999999
vn 0 0 -0.9999999999999999
vn 0 0 -0.9999999999999999
vn 0 -1 0
vn 0 -1 0
vn 0 -1 0
vn 0 -1 0
vn 0 -1 0
vn 0 -1 0
g unit02UpperArmInverted
usemtl 1
f 1/1/1 2/2/2 3/3/3
f 2/4/4 4/5/5 3/6/6
f 3/7/7 4/8/8 5/9/9
f 4/10/10 6/11/11 5/12/12
f 5/13/13 6/14/14 7/15/15
f 6/16/16 8/17/17 7/18/18
f 7/19/19 8/20/20 9/21/21
f 8/22/22 10/23/23 9/24/24
f 11/25/25 12/26/26 1/27/27
f 12/28/28 2/29/29 1/30/30
f 13/31/31 14/32/32 11/33/33
f 14/34/34 12/35/35 11/36/36
f 15/37/37 16/38/38 13/39/39
f 16/40/40 14/41/41 13/42/42
f 9/43/43 10/44/44 15/45/45
f 10/46/46 16/47/47 15/48/48
f 11/49/49 1/50/50 13/51/51
f 1/52/52 15/53/53 13/54/54
f 1/55/55 3/56/56 15/57/57
f 3/58/58 9/59/59 15/60/60
f 3/61/61 5/62/62 9/63/63
f 5/64/64 7/65/65 9/66/66
f 6/67/67 4/68/68 8/69/69
f 4/70/70 10/71/71 8/72/72
f 4/73/73 2/74/74 10/75/75
f 2/76/76 16/77/77 10/78/78
f 2/79/79 12/80/80 16/81/81
f 12/82/82 14/83/83 16/84/84
f 17/85/85 18/86/86 19/87/87
f 18/88/88 20/89/89 19/90/90
f 21/91/91 22/92/92 23/93/93
f 22/94/94 24/95/95 23/96/96
f 25/97/97 22/98/98 26/99/99
f 27/100/100 28/101/101 24/102/102
f 21/103/103 18/104/104 17/105/105
f 20/106/106 23/107/107 19/108/108
f 25/109/109 26/110/110 27/111/111
f 26/112/112 28/113/113 27/114/114
f 29/115/115 30/116/116 31/117/117
f 30/118/118 32/119/119 31/120/120
f 31/121/121 32/122/122 33/123/123
f 32/124/124 34/125/125 33/126/126
f 35/127/127 36/128/128 34/129/129
f 36/130/130 33/131/131 34/132/132
f 30/133/133 29/134/134 35/135/135
f 29/136/136 36/137/137 35/138/138
f 37/139/139 38/140/140 39/141/141
f 37/142/142 40/143/143 38/144/144
f 40/145/145 41/146/146 42/147/147
f 40/148/148 37/149/149 41/150/150
f 41/151/151 38/152/152 42/153/153
f 41/154/154 39/155/155 38/156/156
f 37/157/157 39/158/158 41/159/159
f 37/160/160 37/161/161 39/162/162
