o Default
v -0.1992187350988388 -0.45883414149284363 -0.151442289352417
v 0.1469350904226303 -0.45883414149284363 0.19471150636672974
v -0.1992187350988388 -0.45883414149284363 0.19471150636672974
v 0.1469350904226303 -0.45883414149284363 -0.151442289352417
v 0.15377400815486908 -1.4078900814056396 0.2015504390001297
v 0.15377400815486908 -0.2684231698513031 -0.15828120708465576
v 0.15377400815486908 -0.2684231698513031 0.2015504390001297
v 0.15377400815486908 -1.4078900814056396 -0.15828120708465576
v -0.20605765283107758 -0.2684231698513031 -0.15828120708465576
v -0.20605765283107758 -1.4078900814056396 -0.15828120708465576
v -0.20605765283107758 -0.2684231698513031 0.2015504390001297
v -0.20605765283107758 -1.4078900814056396 0.2015504390001297
v -0.5453726053237915 0.40655046701431274 0.5408653616905212
v -0.5453726053237915 0.40655046701431274 0.10817307233810425
v -0.5453726053237915 0.40655046701431274 -0.151442289352417
v -0.5453726053237915 0.40655046701431274 -0.5841346383094788
v 0.5796273946762085 0.40655046701431274 0.5408653616905212
v 0.1469350904226303 0.40655046701431274 0.5408653616905212
v -0.11268029361963272 0.40655046701431274 0.5408653616905212
v 0.5796273946762085 0.40655046701431274 -0.5841346383094788
v 0.5796273946762085 0.40655046701431274 -0.151442289352417
v 0.5796273946762085 0.40655046701431274 0.10817307233810425
v -0.11268029361963272 0.40655046701431274 -0.5841346383094788
v 0.1469350904226303 0.40655046701431274 -0.5841346383094788
v -0.37229564785957336 1.4450119733810425 -0.43990379571914673
v 0.666165828704834 0.40655043721199036 -0.6274037957191467
v -0.631911039352417 0.40655043721199036 -0.6274037957191467
v 0.41616585850715637 1.430588960647583 -0.43990379571914673
v 0.666165828704834 0.40655043721199036 0.5841346383094788
v -0.631911039352417 0.40655043721199036 0.5841346383094788
v -0.37229567766189575 1.4450119733810425 0.39663460850715637
v 0.41616585850715637 1.430588960647583 0.39663460850715637
vt 0.53125 0.4765625
vt 0.5 0.5078125
vt 0.53125 0.5078125
vt 0.53125 0.4765625
vt 0.5 0.4765625
vt 0.5 0.5078125
vt 0.578125 0.484375
vt 0.5546875 0.59375
vt 0.578125 0.59375
vt 0.578125 0.484375
vt 0.5546875 0.484375
vt 0.5546875 0.59375
vt 0.578125 0.484375
vt 0.5546875 0.59375
vt 0.578125 0.59375
vt 0.578125 0.484375
vt 0.5546875 0.484375
vt 0.5546875 0.59375
vt 0.578125 0.484375
vt 0.5546875 0.59375
vt 0.578125 0.59375
vt 0.578125 0.484375
vt 0.5546875 0.484375
vt 0.5546875 0.59375
vt 0.578125 0.484375
vt 0.5546875 0.59375
vt 0.578125 0.59375
vt 0.578125 0.484375
vt 0.5546875 0.484375
vt 0.5546875 0.59375
vt 0.5234375 0.5078125
vt 0.5 0.53125
vt 0.5234375 0.53125
vt 0.5234375 0.5078125
vt 0.5 0.5078125
vt 0.5 0.53125
vt 0.4140625 0.390625
vt 0.375 0.46875
vt 0.4140625 0.46875
vt 0.4375 0.390625
vt 0.4375 0.46875
vt 0.4765625 0.46875
vt 0.4375 0.390625
vt 0.4140625 0.46875
vt 0.4375 0.46875
vt 0.4375 0.390625
vt 0.4140625 0.390625
vt 0.4140625 0.46875
vt 0.4140625 0.390625
vt 0.375 0.46875
vt 0.4140625 0.46875
vt 0.4375 0.390625
vt 0.4375 0.46875
vt 0.4765625 0.46875
vt 0.4375 0.390625
vt 0.4140625 0.46875
vt 0.4375 0.46875
vt 0.4375 0.390625
vt 0.4140625 0.390625
vt 0.4140625 0.46875
vt 0.4140625 0.390625
vt 0.375 0.46875
vt 0.4140625 0.46875
vt 0.4375 0.390625
vt 0.4375 0.46875
vt 0.4765625 0.46875
vt 0.4375 0.390625
vt 0.4140625 0.46875
vt 0.4375 0.46875
vt 0.4375 0.390625
vt 0.4140625 0.390625
vt 0.4140625 0.46875
vt 0.4375 0.390625
vt 0.4140625 0.46875
vt 0.4375 0.46875
vt 0.4375 0.390625
vt 0.4140625 0.390625
vt 0.4140625 0.46875
vt 0.4375 0.390625
vt 0.4375 0.46875
vt 0.4765625 0.46875
vt 0.4140625 0.390625
vt 0.375 0.46875
vt 0.4140625 0.46875
vt 0.375 0.46875
vt 0.46875 0.578125
vt 0.375 0.578125
vt 0.375 0.46875
vt 0.46875 0.46875
vt 0.46875 0.578125
vt 0.375 0.46875
vt 0.46875 0.578125
vt 0.375 0.578125
vt 0.375 0.46875
vt 0.46875 0.46875
vt 0.46875 0.578125
vt 0.375 0.28125
vt 0.484375 0.390625
vt 0.375 0.390625
vt 0.375 0.28125
vt 0.484375 0.28125
vt 0.484375 0.390625
vt 0.375 0.46875
vt 0.46875 0.578125
vt 0.375 0.578125
vt 0.375 0.46875
vt 0.46875 0.46875
vt 0.46875 0.578125
vt 0.375 0.46875
vt 0.46875 0.578125
vt 0.375 0.578125
vt 0.375 0.46875
vt 0.46875 0.46875
vt 0.46875 0.578125
vt 0.484375 0.390625
vt 0.375 0.28125
vt 0.484375 0.28125
vt 0.484375 0.390625
vt 0.375 0.390625
vt 0.375 0.28125
vn 0 -0.9999999999999999 0
vn 0 -0.9999999999999999 0
vn 0 -0.9999999999999999 0
vn 0 -0.9999999999999999 0
vn 0 -0.9999999999999999 0
vn 0 -0.9999999999999999 0
vn 1 0 0
vn 1 0 0
vn 1 0 0
vn 1 0 0
vn 1 0 0
vn 1 0 0
vn 0 0 -1
vn 0 0 -1
vn 0 0 -1
vn 0 0 -1
vn 0 0 -1
vn 0 0 -1
vn -1 0 0
vn -1 0 0
vn -1 0 0
vn -1 0 0
vn -1 0 0
vn -1 0 0
vn 0 0 1
vn 0 0 1
vn 0 0 1
vn 0 0 1
vn 0 0 1
vn 0 0 1
vn 0 -1 0
vn 0 -1 0
vn 0 -1 0
vn 0 -1 0
vn 0 -1 0
vn 0 -1 0
vn -0.9284766809619515 -0.3713907011623726 0
vn -0.9284766809619515 -0.3713907011623726 0
vn -0.9284766809619515 -0.3713907011623726 0
vn -0.9284766809619514 -0.3713907011623726 0
vn -0.9284766809619514 -0.3713907011623726 0
vn -0.9284766809619514 -0.3713907011623726 0
vn -0.9284766809619515 -0.3713907011623726 0
vn -0.9284766809619515 -0.3713907011623726 0
vn -0.9284766809619515 -0.3713907011623726 0
vn -0.9284766809619515 -0.37139070116237266 0
vn -0.9284766809619515 -0.37139070116237266 0
vn -0.9284766809619515 -0.37139070116237266 0
vn 0 -0.37139068738000114 0.9284766864749003
vn 0 -0.37139068738000114 0.9284766864749003
vn 0 -0.37139068738000114 0.9284766864749003
vn 0 -0.37139068738000114 0.9284766864749003
vn 0 -0.37139068738000114 0.9284766864749003
vn 0 -0.37139068738000114 0.9284766864749003
vn 0 -0.3713906873800011 0.9284766864749002
vn 0 -0.3713906873800011 0.9284766864749002
vn 0 -0.3713906873800011 0.9284766864749002
vn 0 -0.3713906873800011 0.9284766864749002
vn 0 -0.3713906873800011 0.9284766864749002
vn 0 -0.3713906873800011 0.9284766864749002
vn 0.8944271909999159 -0.4472135954999579 0
vn 0.8944271909999159 -0.4472135954999579 0
vn 0.8944271909999159 -0.4472135954999579 0
vn 0.8944271909999159 -0.4472135954999579 0
vn 0.8944271909999159 -0.4472135954999579 0
vn 0.8944271909999159 -0.4472135954999579 0
vn 0.8944271909999159 -0.4472135954999579 0
vn 0.8944271909999159 -0.4472135954999579 0
vn 0.8944271909999159 -0.4472135954999579 0
vn 0.8944271909999159 -0.4472135954999579 0
vn 0.8944271909999159 -0.4472135954999579 0
vn 0.8944271909999159 -0.4472135954999579 0
vn 0 -0.4472136324629542 -0.8944271725184169
vn 0 -0.4472136324629542 -0.8944271725184169
vn 0 -0.4472136324629542 -0.8944271725184169
vn 0 -0.4472136324629542 -0.8944271725184169
vn 0 -0.4472136324629542 -0.8944271725184169
vn 0 -0.4472136324629542 -0.8944271725184169
vn 0 -0.4472136324629542 -0.8944271725184169
vn 0 -0.4472136324629542 -0.8944271725184169
vn 0 -0.4472136324629542 -0.8944271725184169
vn 0 -0.4472136324629541 -0.8944271725184167
vn 0 -0.4472136324629541 -0.8944271725184167
vn 0 -0.4472136324629541 -0.8944271725184167
vn 0 0.17768253085617658 -0.9840878610309874
vn 0 0.17768253085617658 -0.9840878610309874
vn 0 0.17768253085617658 -0.9840878610309874
vn 0.0033088575304266433 0.180885009325463 -0.9834986857455228
vn 0.0033088575304266433 0.180885009325463 -0.9834986857455228
vn 0.0033088575304266433 0.180885009325463 -0.9834986857455228
vn 0 -0.9999999999999999 0
vn 0 -0.9999999999999999 0
vn 0 -0.9999999999999999 0
vn 0 -0.9999999999999999 0
vn 0 -0.9999999999999999 0
vn 0 -0.9999999999999999 0
vn -0.9701424970392628 0.24253563746060613 -3.4562070686412086e-8
vn -0.9701424970392628 0.24253563746060613 -3.4562070686412086e-8
vn -0.9701424970392628 0.24253563746060613 -3.4562070686412086e-8
vn -0.970142505058567 0.24253560538339194 0
vn -0.970142505058567 0.24253560538339194 0
vn -0.970142505058567 0.24253560538339194 0
vn 0.018289542499230156 0.9998327323283474 6.515789820667424e-10
vn 0.018289542499230156 0.9998327323283474 6.515789820667424e-10
vn 0.018289542499230156 0.9998327323283474 6.515789820667424e-10
vn 0.01828954180815204 0.999832732340989 0
vn 0.01828954180815204 0.999832732340989 0
vn 0.01828954180815204 0.999832732340989 0
vn 0.0032359270171275346 0.17689813037025173 0.9842238466161289
vn 0.0032359270171275346 0.17689813037025173 0.9842238466161289
vn 0.0032359270171275346 0.17689813037025173 0.9842238466161289
vn 0 0.18010448674210972 0.9836474845468579
vn 0 0.18010448674210972 0.9836474845468579
vn 0 0.18010448674210972 0.9836474845468579
vn 0.9714691087491077 0.23716612478643398 0
vn 0.9714691087491077 0.23716612478643398 0
vn 0.9714691087491077 0.23716612478643398 0
vn 0.9714691087491077 0.23716612478643398 0
vn 0.9714691087491077 0.23716612478643398 0
vn 0.9714691087491077 0.23716612478643398 0
g unit02UpperLeg
usemtl 1
f 1/1/1 2/2/2 3/3/3
f 1/4/4 4/5/5 2/6/6
f 5/7/7 6/8/8 7/9/9
f 5/10/10 8/11/11 6/12/12
f 8/13/13 9/14/14 6/15/15
f 8/16/16 10/17/17 9/18/18
f 10/19/19 11/20/20 9/21/21
f 10/22/22 12/23/23 11/24/24
f 12/25/25 7/26/26 11/27/27
f 12/28/28 5/29/29 7/30/30
f 12/31/31 8/32/32 5/33/33
f 12/34/34 10/35/35 8/36/36
f 3/37/37 13/38/38 14/39/39
f 1/40/40 15/41/41 16/42/42
f 1/43/43 14/44/44 15/45/45
f 1/46/46 3/47/47 14/48/48
f 2/49/49 17/50/50 18/51/51
f 3/52/52 19/53/53 13/54/54
f 3/55/55 18/56/56 19/57/57
f 3/58/58 2/59/59 18/60/60
f 4/61/61 20/62/62 21/63/63
f 2/64/64 22/65/65 17/66/66
f 2/67/67 21/68/68 22/69/69
f 2/70/70 4/71/71 21/72/72
f 4/73/73 23/74/74 24/75/75
f 4/76/76 1/77/77 23/78/78
f 4/79/79 24/80/80 20/81/81
f 1/82/82 16/83/83 23/84/84
f 25/85/85 26/86/86 27/87/87
f 25/88/88 28/89/89 26/90/90
f 27/91/91 29/92/92 30/93/93
f 27/94/94 26/95/95 29/96/96
f 27/97/97 31/98/98 25/99/99
f 27/100/100 30/101/101 31/102/102
f 31/103/103 28/104/104 25/105/105
f 31/106/106 32/107/107 28/108/108
f 30/109/109 32/110/110 31/111/111
f 30/112/112 29/113/113 32/114/114
f 29/115/115 28/116/116 32/117/117
f 29/118/118 26/119/119 28/120/120
